<?xml version="1.0" encoding="utf-8"?><svg width="102" height="1282" viewBox="0 0 102 1282" xmlns="http://www.w3.org/2000/svg" xmlns:xlink="http://www.w3.org/1999/xlink"><svg width="34" height="34" fill="none" viewBox="-1 -1 34 34" id="arrow" xmlns="http://www.w3.org/2000/svg"><path fill-rule="evenodd" clip-rule="evenodd" d="m21.576 15-4.585-5.349 1.518-1.302L25.067 16l-6.558 7.651-1.518-1.302L21.576 17H6.933v-2h14.643Z" fill="#131313"/></svg><svg width="49" height="82" viewBox="-1 -1 78 132" id="b-corp" y="34" xmlns="http://www.w3.org/2000/svg"><g clip-path="url(#aba)"><path d="M48.021 58.214v-.122c4.003-1.66 6.426-5.167 6.426-9.841 0-4.31-2.242-7.447-5.094-9.169-2.607-1.6-7.639-1.6-11.461-1.6H22.187V81.41H43.11c8.61 0 13.157-6.154 13.157-12.612 0-5.414-2.908-9.476-8.246-10.584Zm-20.076-15.8h11.522c4.975 0 9.217.86 9.217 6.95 0 4.616-2.67 7.015-9.217 7.015H27.945V42.413Zm14.437 34.078H27.945v-15.2h13.16c4.862 0 9.403 1.598 9.403 7.322 0 4.796-3.155 7.872-8.126 7.872v.005Zm-4.32-55.532C17.111 20.96.127 38.197.127 59.446s16.987 38.485 37.931 38.485C59.004 97.93 76 80.693 76 59.446S59.015 20.96 38.06 20.96h.001Zm-.003 71.918c-18.184 0-32.931-14.959-32.931-33.414 0-18.455 14.743-33.409 32.931-33.409 18.188 0 32.938 14.958 32.938 33.409S56.255 92.878 38.059 92.878ZM.205 111.1h75.718v-5.05H.205v5.05Zm74.272-12.57c-.28-.12-.582-.18-.886-.18-.3 0-.599.061-.875.18a2.27 2.27 0 0 0-1.212 1.198 2.163 2.163 0 0 0-.18.91c-.007.313.054.623.18.909a2.29 2.29 0 0 0 1.212 1.216 2.266 2.266 0 0 0 1.76 0c.268-.113.51-.278.712-.485.211-.209.378-.457.492-.731.125-.286.186-.596.18-.909a2.192 2.192 0 0 0-.18-.91 2.334 2.334 0 0 0-.492-.718 2.245 2.245 0 0 0-.711-.48Zm.972 2.105c.002.265-.047.528-.146.774-.089.231-.22.444-.389.626-.17.175-.37.316-.592.415a1.799 1.799 0 0 1-.735.144 1.77 1.77 0 0 1-1.329-.559 1.732 1.732 0 0 1-.388-.626 2.028 2.028 0 0 1-.144-.774 1.988 1.988 0 0 1 .144-.769c.084-.232.217-.443.389-.62a1.844 1.844 0 0 1 1.328-.561c.253 0 .503.05.735.15.22.1.421.24.592.41.168.181.3.392.39.621.098.244.148.506.145.769Zm-.99-.036a.68.68 0 0 0 .2-.539.716.716 0 0 0-.23-.578 1.082 1.082 0 0 0-.698-.188h-1.026v2.679h.416v-1.155h.432l.72 1.155h.438l-.758-1.178a.961.961 0 0 0 .502-.201l.004.005Zm-.904-.113h-.429v-.853h.54c.073 0 .14 0 .21.01a.574.574 0 0 1 .18.065c.055.028.101.07.133.123a.358.358 0 0 1 .05.211.438.438 0 0 1-.056.25.366.366 0 0 1-.155.133.606.606 0 0 1-.217.05c-.083 0-.18.011-.265.011h.009ZM1.786 12.452a6.062 6.062 0 0 0 2.12 1.526c.892.382 1.856.57 2.828.555.79.01 1.576-.122 2.32-.39a5.344 5.344 0 0 0 1.84-1.129c.535-.51.963-1.12 1.26-1.795.331-.746.531-1.542.593-2.354H9.84c-.12.933-.436 1.686-.948 2.257-.513.57-1.233.856-2.161.856a3.474 3.474 0 0 1-1.727-.399 3.326 3.326 0 0 1-1.15-1.06 4.662 4.662 0 0 1-.643-1.49 7.219 7.219 0 0 1-.2-1.701c0-.593.069-1.184.204-1.762.123-.542.34-1.059.643-1.526a3.27 3.27 0 0 1 1.15-1.077 3.48 3.48 0 0 1 1.727-.4 3.091 3.091 0 0 1 1.98.701c.262.22.484.481.66.774.184.293.307.62.36.963h2.914a5.628 5.628 0 0 0-.652-2.14 5.18 5.18 0 0 0-1.314-1.567 5.78 5.78 0 0 0-1.8-.964 7.245 7.245 0 0 0-4.966.234 6.068 6.068 0 0 0-2.12 1.556A6.97 6.97 0 0 0 .475 4.444a8.786 8.786 0 0 0-.463 2.89c-.009.963.147 1.92.46 2.83a6.802 6.802 0 0 0 1.324 2.288h-.009Zm12.871.562c.444.473.988.841 1.592 1.078a5.58 5.58 0 0 0 2.108.378c1.126 0 2.086-.259 2.88-.777.796-.518 1.384-1.38 1.765-2.588h-2.409a1.735 1.735 0 0 1-.729.886 2.406 2.406 0 0 1-1.419.418c-.767 0-1.355-.201-1.764-.603-.41-.402-.633-1.051-.672-1.947h7.154a7.232 7.232 0 0 0-.193-2.235 5.5 5.5 0 0 0-.871-1.907 4.437 4.437 0 0 0-1.545-1.334 4.663 4.663 0 0 0-2.206-.496 5.066 5.066 0 0 0-2.061.422A4.842 4.842 0 0 0 13.65 7.11a5.937 5.937 0 0 0-.36 2.101 6.223 6.223 0 0 0 .36 2.14 4.83 4.83 0 0 0 1.008 1.672l-.002-.009Zm1.488-5.557A2.026 2.026 0 0 1 17.2 6.2a2.346 2.346 0 0 1 1.08-.223c.665 0 1.16.18 1.485.539.325.36.553.89.683 1.594h-4.439c.019-.224.06-.445.125-.66l.01.007Zm10.971 2.23a5.694 5.694 0 0 1 .134-1.257c.08-.367.234-.715.451-1.022.216-.296.502-.534.834-.69a2.866 2.866 0 0 1 1.26-.252 5.613 5.613 0 0 1 .978.095V3.99a2.05 2.05 0 0 0-.594-.1 3.201 3.201 0 0 0-.997.157 3.486 3.486 0 0 0-2.164 1.99h-.038V4.164h-2.591v10.055h2.724V9.696l.003-.009Zm6.233 2.257a2.58 2.58 0 0 0 .249 1.225c.155.298.39.547.68.718.308.175.647.29.998.34.397.06.798.089 1.199.087.268 0 .54 0 .825-.02.257-.01.513-.035.767-.077v-2.135a4.33 4.33 0 0 1-.844.077c-.46 0-.768-.077-.92-.233-.154-.156-.231-.467-.231-.934v-4.98h1.995V4.163h-1.999V1.149h-2.722v3.015h-1.647V6.01h1.649l.002 5.933Zm9.026-7.782H39.65v10.055h2.722l.004-10.055Zm0-3.834H39.65v2.279h2.722l.004-2.279Zm2.71 13.893h2.724V6.01h1.878V4.164h-1.882V3.56c0-.414.08-.718.24-.885.16-.167.424-.262.795-.262.333-.002.666.018.996.06V.408c-.229-.012-.466-.03-.707-.048a9.9 9.9 0 0 0-.73-.03c-1.112 0-1.944.285-2.493.856a3.051 3.051 0 0 0-.825 2.197v.78h-1.63V6.01h1.63l.004 8.21ZM54.256.328H51.53v2.279h2.723l.004-2.279Zm0 3.834H51.53v10.055h2.723l.004-10.055Zm2.263 8.85c.444.473.988.841 1.592 1.078.671.261 1.387.39 2.108.379a5.15 5.15 0 0 0 2.88-.778c.79-.52 1.378-1.382 1.764-2.587h-2.404c-.132.368-.386.68-.72.885a2.409 2.409 0 0 1-1.42.418c-.765 0-1.354-.2-1.765-.603-.412-.402-.638-1.05-.677-1.941h7.153a7.232 7.232 0 0 0-.193-2.236 5.5 5.5 0 0 0-.871-1.906 4.439 4.439 0 0 0-1.545-1.335 4.663 4.663 0 0 0-2.205-.495 5.053 5.053 0 0 0-2.062.418 4.861 4.861 0 0 0-1.6 1.119 4.92 4.92 0 0 0-1.036 1.682 5.935 5.935 0 0 0-.36 2.101 6.223 6.223 0 0 0 .36 2.14c.22.62.563 1.189 1.008 1.672l-.007-.01Zm1.493-5.555A2.044 2.044 0 0 1 59.067 6.2a2.366 2.366 0 0 1 1.08-.223c.664 0 1.159.18 1.486.539.326.36.55.891.673 1.596h-4.43c.02-.224.06-.445.125-.66l.01.005Zm8.926 5.394c.364.498.84.904 1.39 1.185a4.528 4.528 0 0 0 3.711.079 2.825 2.825 0 0 0 1.26-1.178h.038v1.286h2.59V.33h-2.729v5.057h-.037A2.932 2.932 0 0 0 71.9 4.27a3.816 3.816 0 0 0-1.673-.38 4.024 4.024 0 0 0-1.92.439 4.14 4.14 0 0 0-1.37 1.156 5.078 5.078 0 0 0-.824 1.665 6.873 6.873 0 0 0-.278 1.955c-.002.686.091 1.368.278 2.027.169.62.448 1.202.824 1.722v-.003Zm1.745-4.86c.074-.362.21-.707.401-1.023.185-.295.44-.542.74-.718.343-.191.731-.287 1.124-.276.389-.016.775.078 1.113.27.29.18.536.423.72.71.191.311.324.654.392 1.013a6.279 6.279 0 0 1 0 2.395 3.338 3.338 0 0 1-.383 1.041c-.175.3-.423.55-.72.73-.341.195-.73.292-1.122.28a1.985 1.985 0 0 1-1.08-.282 2.393 2.393 0 0 1-.75-.74 3.231 3.231 0 0 1-.431-1.041 5.525 5.525 0 0 1-.009-2.363l.005.003ZM4.739 125.93c-1.905 0-2.622-1.645-2.622-3.273 0-1.713.72-3.358 2.622-3.358 1.053 0 1.98.74 2.108 1.713h2.05c-.257-2.261-2.037-3.521-4.158-3.521-2.984 0-4.739 2.26-4.739 5.166 0 2.821 1.755 5.081 4.739 5.081 2.364 0 4.026-1.562 4.242-4H6.924c-.158 1.287-.9 2.192-2.185 2.192Zm8.669-5.699c-2.19 0-3.601 1.478-3.601 3.74 0 2.262 1.417 3.726 3.6 3.726 2.185 0 3.62-1.48 3.62-3.726s-1.419-3.74-3.62-3.74Zm0 5.999c-1.296 0-1.69-1.137-1.69-2.259 0-1.122.393-2.275 1.69-2.275 1.296 0 1.7 1.138 1.7 2.275s-.391 2.257-1.7 2.257v.002Zm6.65-4.507h-.028v-1.313h-1.82v7.075h1.915v-3.184c0-1.246.486-2.273 1.892-2.273.232-.001.463.022.69.067v-1.808a1.423 1.423 0 0 0-.42-.069 2.47 2.47 0 0 0-2.228 1.507v-.002Zm7.32-1.492c-.863 0-1.621.343-2.078 1.095h-.026v-.898h-1.818V130h1.916v-3.371h.025a2.466 2.466 0 0 0 2.092 1.069c2.04 0 3.06-1.767 3.06-3.658 0-2.013-.982-3.808-3.173-3.808h.001Zm-.398 5.997c-1.243 0-1.675-1.095-1.675-2.244 0-1.15.405-2.29 1.66-2.29s1.675 1.164 1.675 2.29c0 1.125-.404 2.244-1.66 2.244Zm7.78-5.997c-2.186 0-3.602 1.478-3.602 3.74 0 2.262 1.417 3.726 3.601 3.726s3.623-1.48 3.623-3.726-1.415-3.74-3.623-3.74Zm0 5.997c-1.295 0-1.688-1.137-1.688-2.259 0-1.122.393-2.275 1.687-2.275 1.295 0 1.703 1.139 1.703 2.275 0 1.137-.387 2.259-1.703 2.259Zm6.66-4.505h-.028v-1.313H39.57v7.075h1.917v-3.184c0-1.246.487-2.273 1.89-2.273.232-.001.463.021.69.067v-1.808a1.423 1.423 0 0 0-.419-.069 2.46 2.46 0 0 0-2.227 1.507v-.002Zm9.557.521c0-1.697-1.676-2.013-3.06-2.013-1.568 0-3.174.539-3.282 2.37h1.917c.069-.768.54-1.068 1.271-1.068.672 0 1.242.124 1.242.957 0 .795-1.094.754-2.27.933-1.176.18-2.376.539-2.376 2.155 0 1.455 1.053 2.124 2.376 2.124.852 0 1.743-.231 2.34-.878.022.234.068.464.138.688h1.948c-.18-.289-.245-.932-.245-1.577v-3.691h.002Zm-1.917 2.514c0 .425-.056 1.628-1.554 1.628-.62 0-1.175-.179-1.175-.898 0-.718.54-.921 1.134-1.041.594-.12 1.27-.122 1.595-.411v.722Zm5.79-6.465h-1.906v2.125h-1.17v1.301h1.17v4.177c0 1.411 1.026 1.686 2.198 1.686.375.007.75-.016 1.122-.068v-1.521a3.134 3.134 0 0 1-.596.054c-.647 0-.809-.164-.809-.824v-3.5h1.405v-1.3h-1.405V118.3l-.009-.006Zm2.85 1.027h1.918v-1.603h-1.916l-.002 1.603Zm0 8.179h1.918v-7.076h-1.916L57.7 127.5Zm6.81-7.274c-2.186 0-3.601 1.478-3.601 3.741 0 2.262 1.417 3.725 3.6 3.725 2.184 0 3.623-1.479 3.623-3.725 0-2.247-1.42-3.741-3.622-3.741Zm0 5.999c-1.295 0-1.687-1.136-1.687-2.258 0-1.123.392-2.275 1.687-2.275 1.294 0 1.703 1.138 1.703 2.275 0 1.136-.39 2.262-1.702 2.262l-.001-.004Zm8.861-5.995a2.48 2.48 0 0 0-2.135 1.18h-.04v-.988h-1.823v7.082h1.917v-3.71c0-1.436.445-2.029 1.487-2.029.89 0 1.228.577 1.228 1.74v4.001h1.918v-4.356c0-1.753-.514-2.918-2.552-2.918"/></g><defs><clipPath id="aba"><path fill="#131313" d="M0 0h76v130H0z"/></clipPath></defs></svg><svg width="34" height="34" fill="none" viewBox="-1 -1 34 34" id="bag" y="116" xmlns="http://www.w3.org/2000/svg"><path fill-rule="evenodd" clip-rule="evenodd" d="M27.9 9.8 25.2 20H9.5L7.081 6.86H4V5h4.651l.565 3.31L27.9 9.8Zm-4.203 8.4 1.84-6.821-16-1.179 1.334 8h12.826Zm-14.43 6.738a2.751 2.751 0 0 1 1.165-3.596S10.905 21 12.255 21h11a2.747 2.747 0 1 1-2.597 1.86h-6.305a2.751 2.751 0 0 1-5.086 2.078Zm1.605-1.191c0 .489.396.886.886.886.489 0 .886-.397.879-.886a.888.888 0 0 0-.88-.887.886.886 0 0 0-.885.887Zm12.39.886c.49 0 .886-.397.886-.886h-.007a.888.888 0 0 0-.879-.887.886.886 0 0 0 0 1.773Z" fill="#131313"/></svg><svg width="102" height="44" viewBox="-1 -1 1334 578" class="adlogo-svg adheight-30" id="bite-logo" y="150" xmlns="http://www.w3.org/2000/svg"><g class="adlogo" style="fill:#131313"><path d="M511.009 400.651a139.078 139.078 0 0 0-10.068-41.69 121.299 121.299 0 0 0-21.155-33.149 158.768 158.768 0 0 0-47.186-35.061 275.633 275.633 0 0 0-30.235-12.749c-3.568-1.339-7.169-2.55-10.801-3.57-12.298-3.411-24.628-6.694-37.213-8.957-.701 0-1.752 0-1.72-1.53 3.664-.669 7.168-2.199 10.801-3.187a252.853 252.853 0 0 0 27.017-9.339 248.789 248.789 0 0 0 24.087-11.06 191.115 191.115 0 0 0 25.074-15.523 129.851 129.851 0 0 0 24.15-22.981c6-7.356 10.934-15.522 14.656-24.255a106.816 106.816 0 0 0 7.583-28.336 126.147 126.147 0 0 0-5.385-55.237 99.732 99.732 0 0 0-14.911-28.686 123.209 123.209 0 0 0-17.109-18.646 135.54 135.54 0 0 0-23.226-16.67 179.273 179.273 0 0 0-30.235-12.75 101.655 101.655 0 0 0-11.311-3.187 357.343 357.343 0 0 0-40.909-7.81c-6.977-.732-13.891-2.166-20.868-2.708C300.22 1.848 278.396.032 256.476.127c-21.92.096-44.349-.318-66.524.319-21.028.606-42.056 1.53-63.084 2.2-21.028.669-42.374 1.083-63.72 1.689A8362.041 8362.041 0 0 0 6.785 6.12 21.688 21.688 0 0 0 0 6.757v44.91c.616.176 1.244.304 1.88.382a194.284 194.284 0 0 1 30.968 2.9 50.646 50.646 0 0 1 20.678 7.874c7.455 5.1 11.023 12.972 13.604 21.45a109.656 109.656 0 0 1 3.887 32.129v334.673c.096 7.989-.544 15.97-1.912 23.842a62.52 62.52 0 0 1-6.372 19.315 34.25 34.25 0 0 1-20.167 15.682 109.458 109.458 0 0 1-30.204 4.94c-3.919.255-7.838.351-12.235.542v45.452c1.805.651 3.741.848 5.64.574h285.15c4.779 0 9.558 0 14.306-.223a460.847 460.847 0 0 0 86.405-9.945 226.857 226.857 0 0 0 35.365-10.869 147.146 147.146 0 0 0 29.63-15.937 132.601 132.601 0 0 0 27.719-25.849 119.95 119.95 0 0 0 24.437-54.185 158.054 158.054 0 0 0 2.23-43.763ZM215.79 49.723c.988-1.116 2.199-.83 3.187-.83 19.657.415 39.22 1.148 58.527 5.77a61.329 61.329 0 0 1 35.907 24.16 77.57 77.57 0 0 1 12.234 24.639 114.06 114.06 0 0 1 4.174 18.709 202.625 202.625 0 0 1 0 49.5 96.612 96.612 0 0 1-10.546 35.061 55.989 55.989 0 0 1-22.939 22.535 93.583 93.583 0 0 1-40.368 10.837c-12.043.605-24.118.573-36.193.605a6.725 6.725 0 0 1-3.983-.573V49.723Zm134.196 392.045a110.172 110.172 0 0 1-13.062 38.089 62.743 62.743 0 0 1-28.675 26.168 71.027 71.027 0 0 1-25.297 5.897 89.171 89.171 0 0 1-38.583-4.845c-11.724-4.653-20.964-12.367-25.169-24.734a81.73 81.73 0 0 1-3.792-26.519V295.277a6.089 6.089 0 0 1 .478-3.697 3.85 3.85 0 0 1 2.485-.478c16.122.159 32.275-.606 48.396.956a156.685 156.685 0 0 1 34.76 6.088 61.836 61.836 0 0 1 25.488 15.936 83.933 83.933 0 0 1 19.116 32.798 154.852 154.852 0 0 1 6.372 34.806 234.432 234.432 0 0 1-2.517 60.05v.032Z"/><path d="M741.009 517.404c-9.263.1-18.501-.971-27.495-3.187a27.218 27.218 0 0 1-20.455-20.431 110.35 110.35 0 0 1-3.409-30.504V224.836h-.446l-192.628 19.379v41.914h12.935a84.02 84.02 0 0 1 30.172 4.972 21.828 21.828 0 0 1 10.482 8.192 46.477 46.477 0 0 1 5.034 11.251 98.54 98.54 0 0 1 3.186 28.686v124.945a101.784 101.784 0 0 1-3.186 29.228c-2.899 9.753-8.283 17.18-18.128 20.208a71.734 71.734 0 0 1-21.092 3.538c-5.066 0-10.131 0-15.165.159-1.211 0-2.549-.382-3.569.67-1.019 6.215-.637 40.511.51 43.411.797 0 1.625.192 2.453.192h242.139a5.79 5.79 0 0 0 1.243-.255c.13-.051.249-.127.35-.223l.478-.542v-42.36c-1.115-1.211-2.294-.797-3.409-.797ZM620.354 149.806a74.855 74.855 0 0 0 52.975-21.86 74.916 74.916 0 0 0 22.008-52.931 74.918 74.918 0 0 0-21.85-52.998A74.859 74.859 0 0 0 620.577 0c-39.157 0-73.662 34.392-72.961 74.361-.828 39.205 30.937 75.541 72.738 75.445ZM978.719 541.023a204.168 204.168 0 0 0 31.511-26.647 191.345 191.345 0 0 0 24.98 21.802 188.14 188.14 0 0 0 36.76 21.323 196.762 196.762 0 0 0 35.91 11.794 240.957 240.957 0 0 0 50.5 5.864c12.21-.091 24.4-1.157 36.45-3.187a203.19 203.19 0 0 0 41.8-11.124 199.928 199.928 0 0 0 39.16-20.399 164.64 164.64 0 0 0 42.82-40.416 5.34 5.34 0 0 0 1.3-3.665l-36.8-22.503c-1.02.815-1.98 1.71-2.86 2.677a141.058 141.058 0 0 1-14.4 15.459 120.35 120.35 0 0 1-29.38 21.069 95.177 95.177 0 0 1-27.91 9.02 96.194 96.194 0 0 1-39.22-2.2 68.637 68.637 0 0 1-21.35-9.817 74.35 74.35 0 0 1-23.19-25.499 133.947 133.947 0 0 1-14.53-40.479 318.024 318.024 0 0 1-5-47.587c-.54-2.479-.25-5.066.83-7.363h200.02c8.41 0 16.44.351 24.69-.287a35.96 35.96 0 0 0 0-9.721 213.046 213.046 0 0 0-11.6-66.935 140.674 140.674 0 0 0-17.43-33.977 145.392 145.392 0 0 0-45.68-41.436 176.521 176.521 0 0 0-42.06-17.977 225.764 225.764 0 0 0-50.21-7.649c-12.5-.484-25.01-.058-37.44 1.275a197.189 197.189 0 0 0-39.82 8.414c-4.59 1.403-8.96 3.188-13.42 5.036a159.446 159.446 0 0 0-29.5 15.172 183.527 183.527 0 0 0-38.61 32.543 147.717 147.717 0 0 0-21.956 32.129 163.495 163.495 0 0 0-14.465 42.901 216.602 216.602 0 0 0-3.472 27.093 208.243 208.243 0 0 0 7.391 73.628c.924 2.996 1.976 5.929 2.963 8.893a127.776 127.776 0 0 0 5.13 12.749l-12.521 14.248c-2.103 2.167-4.238 4.271-6.372 6.375 0 0-19.117 22.311-42.343 24a49.004 49.004 0 0 1-9.176 0l-1.88-.478c-10.8-3.41-15.515-15.108-17.555-23.682-.223-1.115-.414-2.199-.605-3.187l-.414-2.646a209.957 209.957 0 0 1-1.561-30.025V266.91h81.849v-42.584h-81.849V112.609h-43.522c-1.178 4.909-2.453 9.562-3.409 14.312a116.983 116.983 0 0 1-14.942 36.909 127.479 127.479 0 0 1-32.338 35.986 114.924 114.924 0 0 1-39.635 19.889c-11.727 3-23.77 4.595-35.875 4.749v42.232h38.233v140.531c0 21.961-.191 43.922.191 65.883a135.741 135.741 0 0 0 4.046 31.3 93.567 93.567 0 0 0 16.122 34.487 83.28 83.28 0 0 0 33.389 25.69 119.857 119.857 0 0 0 28.292 7.969A174.244 174.244 0 0 0 872.305 575a225.406 225.406 0 0 0 33.04-3.187 138.353 138.353 0 0 0 35.715-10.901s26.699-12.017 37.659-19.889Zm126.171-197.936a187.964 187.964 0 0 1 5.32-44.878 67.894 67.894 0 0 1 13.57-28.016 38.033 38.033 0 0 1 23.86-13.069 43.372 43.372 0 0 1 26.7 3.761 41.407 41.407 0 0 1 16.98 15.937 106.79 106.79 0 0 1 13.8 46.153c.6 6.375 1.15 12.75 1.66 19.124.26 1.558.09 3.16-.51 4.622h-100.49c-1.24-1.052-.89-2.39-.89-3.634Z"/></g></svg><svg width="34" height="34" fill="none" viewBox="-1 -1 34 34" id="carat" y="194" xmlns="http://www.w3.org/2000/svg"><path fill-rule="evenodd" clip-rule="evenodd" d="M11.962 9.651 13.48 8.35 20.038 16l-6.558 7.651-1.518-1.302L17.404 16l-5.442-6.349Z" fill="#131313"/></svg><svg viewBox="-1 -1 437 359" width="94" height="77" id="carbon-free" y="228" xmlns="http://www.w3.org/2000/svg"><path d="M218.83 298.95c-27.43 0-51.34-6.07-71.08-18.04H8.43c-4.65 0-8.43-3.95-8.43-8.81v-70.11c0-3.13 1.6-6.23 4.49-8.73l1.28-1.11h75.16c.25-.26.51-.53.8-.81-3.88-13.74-5.84-27.98-5.84-42.38C75.89 66.82 139.47 0 217.63 0s141.75 66.82 141.75 148.96c0 14.2-1.91 28.25-5.67 41.79.29.27.58.54.85.82h72.28c4.65 0 8.42 3.95 8.42 8.81v71.71c0 4.86-3.78 8.81-8.42 8.81H289.91c-19.72 11.97-43.63 18.04-71.08 18.04ZM9.11 271.79h141.24l1.11.69c18.48 11.52 41.15 17.35 67.38 17.35s48.91-5.84 67.38-17.35l1.11-.69h138.83v-71.11h-80.32l1.2-3.64c-.34-.28-.76-.63-1.29-1.03l-2.5-1.91.9-3.02c4.07-13.6 6.14-27.77 6.14-42.12 0-77.11-59.5-139.84-132.64-139.84S85 71.85 85 148.96c0 14.49 2.11 28.8 6.27 42.55l.87 2.88-2.31 1.93c-.84.71-1.43 1.24-1.83 1.63l.39 3.3H9.43c-.22.32-.32.58-.32.72v69.82Zm78.14-73.04Z" fill="#fff"/><path d="M354.82 148.96c0 79.74-61.42 144.39-137.19 144.39S80.44 228.69 80.44 148.96 141.86 4.56 217.63 4.56s137.19 64.65 137.19 144.4Z" fill="currentColor"/><path d="M271.72 148.95c0 31.44-24.21 56.93-54.09 56.93s-54.08-25.49-54.08-56.93 24.21-56.93 54.08-56.93 54.09 25.48 54.09 56.93Z" fill="#414042" stroke="#fff" stroke-width="7.98"/><path d="M217.63 202.47c-28.1 0-50.95-24.01-50.95-53.51s22.86-53.52 50.95-53.52 50.96 24.01 50.96 53.52-22.86 53.51-50.96 53.51Zm0-102.47c-25.58 0-46.4 21.96-46.4 48.96s20.81 48.96 46.4 48.96 46.41-21.96 46.41-48.96S243.22 100 217.63 100Z"/><path d="M426.83 196.12h-74.5s-.02.02-.03.02c0 0-.02-.01-.03-.02h-.15V196c-8.59-7.3-66.87-38.17-134.95-38.26-81.01-.1-133.9 38.95-133.9 38.95H7.47c-1.18 1.01-2.91 2.92-2.91 5.28v70.11c0 2.35 1.74 4.26 3.88 4.26h140.6c20.45 12.74 44.3 18.04 69.79 18.04s49.34-5.3 69.79-18.04h138.22c2.14 0 3.87-1.91 3.87-4.26v-71.71c0-2.35-1.73-4.26-3.87-4.26Z" fill="currentColor"/><g fill="#fff"><path d="M53.49 215.74c4.62 0 8.96 1.32 11.28 5.3l6.28-4.67c-3.29-5.74-9.9-8.41-16.49-8.41-15.47 0-27.75 12.09-29.94 28.91-1.77 13.61 6.21 28 22.17 28 11.49 0 18.47-7.27 20.24-9.48l-5.14-4.67c-3.56 4.51-8.53 6.37-14.27 6.37-11.7 0-16.28-8.47-14.79-19.86 1.6-12.32 9.38-21.48 20.66-21.48ZM92.9 221.36c-5.16 0-11.05 1.89-15.47 5.76l3.6 4.61c2.86-2.05 5.75-4.45 11.15-4.45 6.02 0 8.27 4.2 7.73 8.24l-.22 1.64h-5.16c-11.26 0-20.86 3.46-22.21 13.49-1 7.57 4.39 11.69 11.27 11.69 5.62 0 10.1-1.89 13.9-6.91h.15a73.99 73.99 0 0 0-.55 5.92h6.26c.04-2.06.27-4.36.63-7.07l2.66-19.91c.9-6.75-2.8-13-13.74-13Zm5.75 23.7c-.7 5.26-4.25 11.36-12.07 11.36-4.84 0-7.72-1.89-7.13-6.34.84-6.26 9.13-7.49 15.78-7.49h3.76l-.33 2.47ZM134.17 221.36c-4.61 0-9.69 2.88-12.03 6.99h-.16l.8-6h-7.04l-5.2 38.99h7.04l2.61-19.58c1.14-8.56 5.42-12.51 12.3-12.51 1.1 0 2.24.25 3.37.58l1.38-7.99c-.9-.33-1.96-.49-3.06-.49ZM162.16 221.36c-5.32 0-10.73 2.55-13.78 6.59h-.15l3.84-28.8h-7.04l-8.3 62.2h7.04l.74-5.59h.16c2.17 4.2 7.01 6.58 12.01 6.58 11.5 0 20.04-8.97 21.58-20.49 1.56-11.68-4.69-20.49-16.1-20.49Zm8.6 20.49c-1.06 7.9-6.5 13.58-14.01 13.58s-11.43-5.68-10.38-13.58c1.06-7.9 6.5-13.57 14.01-13.57s11.44 5.67 10.38 13.57ZM203.71 221.36c-11.03 0-20.92 9.13-22.44 20.49-1.51 11.36 5.95 20.49 16.97 20.49s20.92-9.13 22.43-20.49c1.52-11.36-5.94-20.49-16.96-20.49Zm9.46 20.49c-1.06 7.9-6.5 13.58-14.01 13.58s-11.44-5.68-10.39-13.58c1.06-7.9 6.5-13.57 14.01-13.57s11.44 5.67 10.39 13.57ZM250.48 238.31l-3.07 23.04h7.03l3.35-25.1c1.39-10.36-4.26-14.89-11.45-14.89-5.71 0-10.78 2.88-13.13 6.99h-.16l.8-6h-7.04l-5.21 38.99h7.03l2.68-20.07c1.21-9.05 6.19-13 12.06-13 4.45 0 8.08 2.71 7.1 10.03Z"/><path d="M326.41 222.28c-5.47 0-10.57 5.17-13.64 9.37l-.18-.2 2.14-8.97-26.6-.02 3.24-18.72c1.39-6.85 4.56-12.21 9.43-12.21.99 0 4.95.23 2.77 2.39-.89.92-1.98 2.74-1.79 4.57.3 3.19 1.79 5.25 4.67 5.25 3.27 0 5.35-2.06 5.35-5.93 0-6.28-5.66-9.13-10.42-9.13-2.78 0-4.66.68-6.25 1.49-10.52 5.36-14.98 20.31-17.86 32.3h-9.91l-.82 3.48h9.92s-3.29 20.04-7.6 32.8c-3.86 11.43-8.93 17.53-12.9 17.64-.83 0-2.4 0-2.4-1.38 0-.64.37-.96.73-1.49.37-.53.75-1.27.75-2.55 0-2.76-2.21-4.25-4.34-4.25-2.49 0-4.33 2.34-4.33 5.1 0 4.14 3.49 7.22 7.01 7.22 6.92 0 13.67-4.81 16.69-8.61 2.81-3.54 6.5-7.77 10.41-18.7 3.98-11.14 7.02-25.79 7.02-25.79h16.72l-7.21 35.57h9.55l3.71-16.88c.55-2.63 1.49-6.44 2.87-8.78 1.39-2.35 5.01-8.2 7.98-8.2 1.39 0 1.86 1.27 2.6 2.54s1.67 2.54 3.99 2.54c2.68 0 4.72-1.85 4.72-4.79 0-3.8-2.69-5.65-6.02-5.65ZM349.15 245.11c5.66 0 8.43-.58 10.95-2.05 3.8-2.24 6.95-5.07 6.95-10.05 0-7.52-6.49-10.73-12.7-10.73-12.15 0-23 12.39-23 24.88 0 8.59 7.32 15.81 15.3 15.81 8.62 0 14.65-3.32 19.01-11.32l-1.95-.98c-3.25 5.77-8.44 9.86-15.02 9.86-4.08 0-7.7-2.34-7.7-6.93 0-3.03.28-5.86 1.3-8.5h6.86Zm4.72-20.39c3.52 0 5.02 2.82 5.02 6.35 0 8.68-5.2 11.61-12.71 11.61h-3.43c2.04-5.95 3.06-17.96 11.12-17.96ZM388 245.11c5.66 0 8.44-.58 10.94-2.05 3.8-2.24 6.96-5.07 6.96-10.05 0-7.52-6.5-10.73-12.71-10.73-12.15 0-22.99 12.39-22.99 24.88 0 8.59 7.32 15.81 15.3 15.81 8.62 0 14.64-3.32 19-11.32l-1.94-.98c-3.25 5.77-8.44 9.86-15.02 9.86-4.09 0-7.7-2.34-7.7-6.93 0-3.03.28-5.86 1.3-8.5H388Zm4.73-20.39c3.53 0 5.01 2.82 5.01 6.35 0 8.68-5.19 11.61-12.71 11.61h-3.43c2.04-5.95 3.06-17.96 11.13-17.96ZM410.22 209.83h-.03c-2.86 0-5.15 2.31-5.15 5.26s2.28 5.29 5.15 5.29 5.12-2.34 5.12-5.29-2.25-5.26-5.09-5.26Zm0 9.46c-2.22 0-3.9-1.86-3.9-4.2s1.67-4.2 3.84-4.2h.03c2.19 0 3.84 1.89 3.84 4.23s-1.64 4.2-3.81 4.17Z"/><path d="M411.35 215.25v-.06c.58-.19 1.04-.61 1.04-1.25 0-.51-.21-.9-.52-1.12-.33-.26-.76-.42-1.71-.42-.82 0-1.46.1-1.92.16v5.26h1.16v-2.08h.55c.64 0 .94.26 1.04.8.15.64.24 1.09.4 1.28h1.22c-.09-.19-.21-.48-.37-1.28-.15-.71-.4-1.12-.88-1.28Zm-1.37-.38h-.55v-1.51c.12-.03.33-.06.64-.06.73 0 1.07.32 1.07.8 0 .54-.52.77-1.16.77Z"/></g><g fill="#414042"><path d="M84.4 321.89c-1.35-1.7-3.3-2.66-5.83-2.66-5.14 0-8.92 4.39-8.92 10.44s3.78 10.44 8.7 10.44c2.75 0 4.97-1.29 6.36-3.49l5.66 4.45c-2.56 3.84-6.92 5.63-11.14 5.63-9.62 0-16.62-6.64-16.62-17.04s7-17.04 16.62-17.04c3.44 0 7.79 1.24 10.4 4.76l-5.22 4.49ZM105.42 343.09h-.09c-1.43 2.39-4.05 3.35-6.7 3.35-3.96 0-7.53-2.38-7.53-6.87 0-7.68 8.88-7.83 14.32-7.83 0-2.42-1.92-3.99-4.18-3.99-2.13 0-3.92 1.02-5.31 2.67l-3.48-3.76c2.39-2.38 5.87-3.57 9.31-3.57 7.62 0 9.66 4.08 9.66 11.5v11.31h-6v-2.8Zm-1.62-6.96c-2 0-6.43.19-6.43 3.21 0 1.65 1.65 2.43 3.08 2.43 2.57 0 4.97-1.42 4.97-4.17v-1.47h-1.62ZM114.43 323.63h6.52v3.58h.09c1.39-2.7 3.22-4.13 6.09-4.13.75 0 1.57.05 2.19.23v6.27c-.92-.27-1.84-.45-2.79-.45-4.96 0-5.57 3.02-5.57 7.46v9.3h-6.52v-22.26ZM131.66 311.26h6.53v14.75h.08c1.48-2.15 4.01-2.93 6.7-2.93 6 0 9.66 5.68 9.66 11.86 0 6.74-4.13 11.5-10.39 11.5-2.97 0-5.49-1.88-6.49-3.48h-.08v2.93h-6.01v-34.63Zm11.23 29.13c3.27 0 5.22-2.29 5.22-5.62s-1.95-5.63-5.22-5.63-5.22 2.29-5.22 5.63 1.95 5.62 5.22 5.62ZM168.35 323.08c6.52 0 11.75 4.58 11.75 11.68s-5.23 11.67-11.75 11.67-11.75-4.58-11.75-11.67 5.22-11.68 11.75-11.68Zm0 17.31c3.26 0 5.21-2.29 5.21-5.62s-1.95-5.63-5.21-5.63-5.22 2.29-5.22 5.63 1.96 5.62 5.22 5.62ZM182.84 323.63h6.26v3.03h.09c.87-1.74 3-3.57 6.18-3.57 6.61 0 7.83 4.58 7.83 10.54v12.27h-6.53V335c0-2.56-.05-5.86-3.39-5.86s-3.92 2.8-3.92 5.67v11.09h-6.52v-22.26ZM208.98 329.13h-4.31v-5.5h4.31v-3.94c0-4.85 1.17-8.97 8.26-8.97 1.31 0 2.61.09 3.83.41l-.31 5.81c-.73-.27-1.34-.45-2.13-.45-2.1 0-3.13.69-3.13 3.62v3.52h4.83v5.5h-4.83v16.76h-6.53v-16.76ZM242.1 345.88h-6.27v-3.02h-.08c-.87 1.74-3 3.57-6.18 3.57-6.61 0-7.83-4.58-7.83-10.53v-12.28h6.53v10.91c0 2.56.03 5.85 3.39 5.85s3.92-2.79 3.92-5.67v-11.09h6.52v22.26ZM245.63 323.63h6.26v3.03h.09c.88-1.74 3-3.57 6.18-3.57 6.62 0 7.83 4.58 7.83 10.54v12.27h-6.52V335c0-2.56-.04-5.86-3.4-5.86s-3.92 2.8-3.92 5.67v11.09h-6.52v-22.26ZM291.71 345.88h-6.01v-2.93h-.08c-1 1.6-3.52 3.48-6.48 3.48-6.27 0-10.4-4.76-10.4-11.5 0-6.18 3.65-11.86 9.66-11.86 2.7 0 5.23.78 6.71 2.93h.09v-14.75h6.53v34.63Zm-11.23-16.76c-3.26 0-5.22 2.29-5.22 5.63s1.96 5.62 5.22 5.62 5.23-2.29 5.23-5.62-1.96-5.63-5.23-5.63ZM299.97 337.74c2.22 0 4 1.87 4 4.21s-1.78 4.22-4 4.22-4.01-1.88-4.01-4.22 1.79-4.21 4.01-4.21ZM318.6 323.08c6.53 0 11.75 4.58 11.75 11.68s-5.21 11.67-11.75 11.67-11.75-4.58-11.75-11.67 5.22-11.68 11.75-11.68Zm0 17.31c3.27 0 5.22-2.29 5.22-5.62s-1.95-5.63-5.22-5.63-5.22 2.29-5.22 5.63 1.95 5.62 5.22 5.62ZM333.09 323.63h6.52v3.58h.09c1.39-2.7 3.22-4.13 6.09-4.13.73 0 1.57.05 2.17.23v6.27c-.91-.27-1.82-.45-2.79-.45-4.96 0-5.57 3.02-5.57 7.46v9.3h-6.52v-22.26ZM371.9 344.01c0 8.38-4.05 12.87-12.24 12.87-3.74 0-7.57-.69-10.61-3.25l3.61-5.68c1.99 1.79 4.22 2.89 6.88 2.89 3.95 0 5.83-2.29 5.83-5.45v-2.15h-.09c-1.48 2.15-4.01 2.94-5.96 2.94-6.27 0-10.4-4.77-10.4-11.5 0-5.91 3.65-11.59 9.66-11.59 3.7 0 6.23 1.88 7.22 3.48h.08v-2.93h6.01v20.38Zm-11.23-3.89c2.96 0 5.21-2.61 5.21-5.5s-2.25-5.49-5.21-5.49-5.22 2.6-5.22 5.49 2.26 5.5 5.22 5.5ZM428.92 343.44c1.65.34 1.65.17 1.65.34s-.17.69-1.65.69H379.6c-.5 0-.99 0-.99-.17s.16-.35.66-.69c2.97-1.39 4.95-4.69 5.28-6.07 0-.87.17-1.04.33-1.21h1.15l42.89 7.12ZM48.16 336.32h1.15c.16.17.33.34.33 1.21.33 1.38 2.31 4.69 5.28 6.07.49.34.66.52.66.69s-.5.17-.99.17H5.27c-1.48 0-1.65-.52-1.65-.69s0 0 1.65-.34l42.89-7.12Z"/></g><g fill="#fff"><path d="m119.45 80.43 5.52-7.65c1.75-2.49 5-7.22 9.76-6.63 3.37.44 9.79 5.57 11.07 8.85 1.77 4.45-2.09 9.2-3.56 11.24l-.46.64 13.79 11.02-5.21 7.22-30.9-24.71Zm16.72 1.98c.62-.86.82-1.14 1.06-1.69.6-1.21.59-1.78-.03-2.78-.48-.89-2.67-2.53-3.5-2.57-1.47-.05-2.45 1.31-3.27 2.46l5.74 4.59ZM162.98 88.67l-.4-.53s-7.91-10.18-11.84-16.98c-3.83-6.66-6.76-18.77-6.76-18.77l6.04-5.06c5.09 2.05 10.51 5.77 15.81 11.2 5.4 5.57 13.08 15.95 13.08 15.95.08.11.4.53.4.53l-6.58 5.5-.45-.6-3.4-4.5-3.17 2.65 3.85 5.09-6.58 5.5Zm-9.91-30.36s.63 1.77 1.07 2.72c1.01 2.13 1.75 3.47 2.99 5.47 1.14 1.8 3.1 4.69 3.1 4.69.27.35.63.91.79 1.12l3.2-2.68c-.16-.21-.62-.68-.89-1.03 0 0-2.2-2.69-3.64-4.24-1.57-1.72-2.64-2.78-4.39-4.3-.78-.67-2.24-1.74-2.24-1.74ZM172.12 34.32l9.67-3.52c2.98-1.08 6.59-2.87 10.24.27 2.88 2.47 5.76 10.4 5.18 13.6-.31 1.68-.68 2.34-1.11 2.68l9.23 18.11-8.3 3.02-8.13-16.94c-.4.29-1.01.51-1.77.79l5.79 17.65-8.14 2.96-12.66-38.61Zm12.75 11.08c.73-.26 1.2-.48 1.68-.8.72-.41 1.45-1.09 1.54-2.18.07-1.02-.7-3.5-1.5-4.16-1.18-.85-2-.6-4 .17l2.28 6.96ZM224.35 24.36l.34 7.58-4.98.25 1.51 33.22-8.6.43-1.51-33.22-4.98.25-.35-7.58 18.57-.94ZM237.74 26.27l7.59 1.89c.33.31.44.57.62.94.39.98 2.02 5.62 2.38 7.74l1.69-7.51 8.38 2.09-8.93 39.75-8.38-2.09 1.53-6.81a46.4 46.4 0 0 0 .88-15.42l-.55-4.38-5.59 24.85-.18.79-8.38-2.09 8.93-39.75ZM289.85 49.67l-3.78 6.46-7.81-5.06-3.53 6.04 7.23 4.68-3.78 6.46-7.23-4.68-5.48 9.36 7.66 4.97.15.09-3.78 6.46-15.14-9.81 20.34-34.78 15.14 9.81ZM303.15 62.56l6.6 8.23c2.04 2.54 4.92 5.44 3.45 10.15-1.15 3.72-7.14 9.4-10.19 9.99-1.6.3-2.31.18-2.77-.12l-12.72 15.59-5.66-7.07 12.09-14.08c-.4-.29-.81-.81-1.33-1.46l-13.56 12.04-5.56-6.93 29.66-26.34Zm-5.23 16.51c.49.62.86 1 1.31 1.36.62.56 1.49 1.02 2.48.73.93-.3 2.85-1.94 3.14-2.97.33-1.47-.19-2.18-1.59-3.87l-5.35 4.75Z"/></g><g fill="#fff"><path d="M105.17 128.77v-3.25c0-3.32.76-5.81 2.28-7.47 1.52-1.66 3.8-2.49 6.82-2.49s5.2.82 6.76 2.47c1.56 1.64 2.34 4.01 2.34 7.1 0 1.94-.26 3.68-.78 5.24-.52 1.55-1.34 3.04-2.47 4.46-.44.55-1.11 1.33-2 2.32-2.2 2.47-3.52 4.47-3.96 5.98h9.25v6.35h-18.38c-.03-.16-.05-.34-.06-.53 0-.19-.01-.46-.01-.82 0-2.36.54-4.75 1.62-7.18 1.08-2.42 2.71-4.88 4.9-7.37.23-.28.56-.65 1-1.12 2.26-2.47 3.39-4.97 3.39-7.5 0-1.33-.11-2.17-.34-2.51-.23-.34-.65-.51-1.27-.51s-1.02.18-1.25.54c-.23.36-.34 1.23-.34 2.61v3.69h-7.52ZM144.19 125.53v14.45c0 3.32-.76 5.81-2.27 7.46-1.51 1.65-3.78 2.48-6.81 2.48s-5.35-.83-6.87-2.49c-1.52-1.66-2.28-4.14-2.28-7.45v-14.45c0-3.3.76-5.79 2.28-7.46 1.52-1.67 3.81-2.5 6.87-2.5s5.3.83 6.81 2.49 2.27 4.15 2.27 7.47Zm-10.69-.44v15.33c0 1.38.11 2.25.34 2.61.23.36.65.54 1.27.54.59 0 1-.18 1.23-.54.24-.36.35-1.23.35-2.61v-15.33c0-1.4-.11-2.27-.34-2.62-.23-.35-.64-.52-1.25-.52s-1.02.18-1.26.54c-.24.36-.35 1.23-.35 2.61Z"/></g><g fill="#fff"><path d="M292.41 128.77v-3.25c0-3.32.76-5.81 2.28-7.47 1.52-1.66 3.8-2.49 6.82-2.49s5.2.82 6.76 2.47c1.56 1.64 2.34 4.01 2.34 7.1 0 1.94-.26 3.68-.78 5.24-.52 1.55-1.34 3.04-2.47 4.46-.44.55-1.11 1.33-2 2.32-2.2 2.47-3.52 4.47-3.96 5.98h9.25v6.35h-18.38c-.03-.16-.05-.34-.06-.53 0-.19-.01-.46-.01-.82 0-2.36.54-4.75 1.62-7.18 1.08-2.42 2.71-4.88 4.9-7.37.23-.28.56-.65 1-1.12 2.26-2.47 3.39-4.97 3.39-7.5 0-1.33-.11-2.17-.34-2.51-.23-.34-.65-.51-1.27-.51s-1.02.18-1.25.54c-.23.36-.34 1.23-.34 2.61v3.69h-7.52ZM313.29 128.77v-3.25c0-3.32.76-5.81 2.28-7.47 1.52-1.66 3.8-2.49 6.82-2.49s5.2.82 6.76 2.47c1.56 1.64 2.34 4.01 2.34 7.1 0 1.94-.26 3.68-.78 5.24-.52 1.55-1.34 3.04-2.47 4.46-.44.55-1.11 1.33-2 2.32-2.2 2.47-3.52 4.47-3.96 5.98h9.25v6.35h-18.38c-.03-.16-.05-.34-.06-.53 0-.19-.01-.46-.01-.82 0-2.36.54-4.75 1.62-7.18 1.08-2.42 2.71-4.88 4.9-7.37.23-.28.56-.65 1-1.12 2.26-2.47 3.39-4.97 3.39-7.5 0-1.33-.11-2.17-.34-2.51-.23-.34-.65-.51-1.27-.51s-1.02.18-1.25.54c-.23.36-.34 1.23-.34 2.61v3.69h-7.52Z"/></g><path d="m81.13 186.07.52 5.04 1.63 5.58s52.89-39.06 133.9-38.95c68.53.09 127.13 31.37 135.12 38.4.98-.44 1.32-4.01 1.32-4.01.62-1.85.72-3.29.94-5.36-5.79-8.6-67.23-40.18-137.39-40.18-76.78 0-128.92 31.13-136.05 39.49Z" fill="#fff"/></svg><svg width="16" height="14" fill="none" viewBox="-2 -2 16 14" y="305" id="checkmark" xmlns="http://www.w3.org/2000/svg"><path fill-rule="evenodd" clip-rule="evenodd" d="M3.724 7.198 1.644 5.03.5 6.222l2.745 2.862.003-.004.502.523 7.75-8.078L10.334.309 3.724 7.2z" fill="#131313"/></svg><svg width="16" height="14" fill="none" viewBox="-2 -2 16 14" y="319" id="checkmark-white" xmlns="http://www.w3.org/2000/svg"><path fill-rule="evenodd" clip-rule="evenodd" d="M3.724 7.198 1.644 5.03.5 6.222l2.745 2.862.003-.004.502.523 7.75-8.078L10.334.309 3.724 7.2z" fill="#fff"/></svg><svg width="34" height="34" fill="none" viewBox="-1 -1 34 34" id="chevron" y="333" xmlns="http://www.w3.org/2000/svg"><path fill-rule="evenodd" clip-rule="evenodd" d="M11.962 9.651 13.48 8.35 20.038 16l-6.558 7.651-1.518-1.302L17.404 16l-5.442-6.349Z" fill="#131313"/></svg><svg viewBox="-1 -1 514 514" height="18" width="18" id="clock" y="367" xmlns="http://www.w3.org/2000/svg"><path d="M256 8C119 8 8 119 8 256s111 248 248 248 248-111 248-248S393 8 256 8zm216 248c0 118.7-96.1 216-216 216-118.7 0-216-96.1-216-216 0-118.7 96.1-216 216-216 118.7 0 216 96.1 216 216zm-148.9 88.3-81.2-59c-3.1-2.3-4.9-5.9-4.9-9.7V116c0-6.6 5.4-12 12-12h14c6.6 0 12 5.4 12 12v146.3l70.5 51.3c5.4 3.9 6.5 11.4 2.6 16.8l-8.2 11.3c-3.9 5.3-11.4 6.5-16.8 2.6z"/></svg><svg viewBox="-1 -1 514 514" height="18" width="18" fill="#898989" id="clock-gray" y="385" xmlns="http://www.w3.org/2000/svg"><path d="M256 8C119 8 8 119 8 256s111 248 248 248 248-111 248-248S393 8 256 8zm216 248c0 118.7-96.1 216-216 216-118.7 0-216-96.1-216-216 0-118.7 96.1-216 216-216 118.7 0 216 96.1 216 216zm-148.9 88.3-81.2-59c-3.1-2.3-4.9-5.9-4.9-9.7V116c0-6.6 5.4-12 12-12h14c6.6 0 12 5.4 12 12v146.3l70.5 51.3c5.4 3.9 6.5 11.4 2.6 16.8l-8.2 11.3c-3.9 5.3-11.4 6.5-16.8 2.6z"/></svg><svg width="34" height="34" fill="none" viewBox="-1 -1 34 34" id="close" y="403" xmlns="http://www.w3.org/2000/svg"><path fill-rule="evenodd" clip-rule="evenodd" d="M24.364 22.95 17.414 16l6.95-6.95-1.414-1.414-6.95 6.95-6.95-6.95L7.636 9.05l6.95 6.95-6.95 6.95 1.414 1.414 6.95-6.95 6.95 6.95 1.414-1.414Z" fill="#131313"/></svg><svg viewBox="-1 -1 514 677" width="63" height="82" id="cruelty-free" y="437" xmlns="http://www.w3.org/2000/svg"><path d="M258.46 253.54c16.05 0 201.73-165.78 143.71-213.13-73.9-60.37-146.18 153.65-146.18 153.65S195.98-15.85 108.48 46.52c-53.87 35.2 133.99 207.01 149.98 207.01ZM45.9 520.85c-.13-1.14-1.27-2.03-2.28-1.78-2.92 4.31-6.72 7.61-14.07 7.61-13.57 0-20.41-11.79-20.41-21.68 0-13.44 8.62-20.41 17.5-20.41 5.2 0 9.89 3.3 12.68 6.72.51.63 1.14.89 1.77.89 1.52 0 2.79-2.41 2.79-4.69 0-2.16-.89-4.18-1.9-5.07-3.42-1.52-8.37-2.15-11.28-2.15-21.04 0-30.68 14.58-30.68 28.27 0 8.24 2.92 14.45 7.35 18.77 4.44 4.31 10.65 6.47 17.37 6.47 7.36 0 16.86-3.55 21.17-12.93ZM63.27 532.01c4.44 0 8.12.13 14.07.38.89-.38 1.14-2.53.25-3.17l-4.57-.38c-4.82-.38-5.07-1.9-5.07-11.03v-17.24c0-4.31.38-7.99 1.65-9.76 1.02-1.39 2.53-2.53 4.56-2.53 1.77 0 3.68.76 5.58 2.03.89.51 1.52.89 2.79.89 2.03 0 5.45-1.65 5.45-5.83 0-3.04-2.53-5.07-5.7-5.07-4.69 0-9.51 3.93-13.95 7.61-.25-.13-.38-.51-.38-1.14v-7.35c0-.51-.38-.76-1.02-.89-3.17 1.9-9.89 5.2-12.8 6.21-.64.38-.64 1.77-.13 2.28l1.14.76c3.42 2.28 3.42 2.91 3.42 7.86v22.19c0 9.13-.13 10.27-4.82 11.03l-2.41.38c-.89.64-.63 2.79.25 3.17 3.3-.25 7.1-.38 11.66-.38ZM135.51 535.05c4.31-2.41 11.66-3.68 16.61-4.69 1.02-.51.89-3.04.13-3.68-1.77.38-3.42.63-4.94.63-3.55 0-3.93-3.8-3.93-13.82v-21.3c0-4.69.13-8.62.38-11.03-.13-.51-.51-.76-1.14-.89-2.79 1.27-9.76 2.15-14.84 2.28-1.01.51-1.01 2.28-.13 2.79l1.65.63c3.8 1.52 4.69 1.78 4.69 10.02v20.8c0 3.93-.89 5.83-2.53 7.35-2.79 2.41-6.85 3.8-10.27 3.8-9.64 0-11.79-5.83-11.79-14.58v-21.17c0-6.21.13-8.88.38-11.03-.13-.51-.51-.76-1.27-.89-2.79 1.02-7.74 2.15-13.57 2.28-.89.38-1.02 2.15-.26 2.79l1.52.63c3.8 1.65 3.8 2.79 3.8 10.78v21.18c0 10.27 4.18 15.85 15.34 15.85 7.48 0 13.69-4.18 17.5-6.59.76 0 1.14.63 1.14 1.77v5.2c.25.51.89.89 1.52.89ZM170.63 499.55h23.45c5.33 0 7.1-.13 7.48-.89.25-.51.51-1.52.51-3.3 0-7.61-7.1-15.09-18.01-15.09-15.22 0-25.49 13.06-25.49 28.65 0 5.58 1.52 11.54 5.33 16.48 3.68 4.82 10.14 8.37 18.38 8.37 6.59 0 15.72-3.17 19.9-11.79-.12-1.14-1.01-1.9-2.28-1.52-3.93 4.94-7.48 6.21-11.67 6.21-13.56 0-21.05-10.9-21.05-23.71 0-3.17.13-3.42 3.42-3.42Zm12.04-15.47c7.35 0 9.76 4.44 9.76 7.99 0 1.65-.38 2.15-.76 2.41-1.02.76-3.8 1.27-13.19 1.27h-9c-.89 0-.89-.38-.89-.64.13-4.18 6.59-11.03 14.07-11.03ZM210.69 528.84l-2.92.38c-.89.64-.63 2.79.25 3.17 3.8-.25 7.61-.38 12.17-.38s8.11.13 12.3.38c.89-.38 1.14-2.53.25-3.17l-3.04-.38c-4.57-.63-4.82-1.9-4.82-11.03v-59.97c0-5.58.25-11.92.38-15.72-.25-.51-.76-.76-1.27-.76-4.56 2.41-10.52 4.31-13.69 5.33-.63.38-.63 2.16 0 2.54l1.27.76c3.8 2.28 3.93 3.04 3.93 10.52v57.31c0 9.13-.13 10.4-4.82 11.03ZM258.49 487.38h14.32c1.14-.76 1.39-4.19-.13-5.33h-14.07c-2.15 0-2.28-.13-2.28-2.41v-5.71c-.51-.89-2.03-.89-2.67-.63-1.27 2.53-3.67 5.96-5.32 7.48-1.27 1.14-4.44 2.79-8.11 3.93-.51.76-.38 2.16.38 2.66h3.55c2.54 0 2.66.25 2.66 3.68v29.04c0 7.61 2.28 13.69 13.19 13.69 6.47 0 11.03-3.17 13.31-5.83.25-.76-.25-2.16-1.27-2.16-.38 0-2.03 1.39-3.17 1.78-1.01.38-2.15.63-3.42.63-8.37 0-9.25-6.72-9.25-14.07v-23.71c0-2.66.13-3.04 2.28-3.04ZM329.99 485.22l2.16-.38c.89-.76.76-2.66-.25-3.17-3.55.25-6.47.38-9.64.38s-7.1-.13-11.16-.38c-1.01.38-1.14 2.53-.25 3.17l3.93.63c2.28.38 3.04 1.27 3.04 2.16 0 1.39-1.65 6.09-4.44 12.68l-4.31 10.02c-2.28 5.2-4.31 9.13-4.69 9.38-.51-.25-2.92-6.97-3.68-9l-4.05-11.67c-.76-2.16-3.68-10.4-3.68-11.92 0-.89 1.01-1.27 2.79-1.65l3.17-.63c.89-.63.76-2.79-.25-3.17-4.05.25-7.6.38-11.03.38-4.18 0-7.99-.13-12.04-.38-1.01.38-1.14 2.53-.38 3.17l3.17.63c4.44.89 5.32 3.93 7.48 9.89l9.89 27.13c1.64 4.69 2.15 6.21 2.15 8.75 0 1.77-.89 4.44-1.27 5.45-1.14 3.04-3.68 8.37-7.36 14.07-.89 1.39-2.16 2.28-4.19 2.28h-2.41c-2.79 0-5.07 1.65-5.07 5.07 0 3.17 1.9 5.45 5.58 5.45 2.92 0 5.96-1.14 8.11-5.96 6.21-13.82 16.61-35.88 20.79-44.38l7.1-14.58c4.31-9 6.59-12.68 10.77-13.44ZM357.38 482.05c-2.67 0-2.79-.25-2.79-4.06v-3.8c0-19.02 3.42-27.64 7.73-27.64 3.04 0 5.83 2.54 9.89 8.37.76 1.01 1.77 1.77 3.68 1.77 3.04 0 6.22-2.53 6.22-6.09 0-5.32-5.71-9.26-14.46-9.26-11.92 0-20.41 7.74-23.71 17.75-2.16 6.47-2.66 12.68-2.66 18.13v2.28c0 1.52-.89 2.28-1.77 2.79l-5.45 2.79c-.89.76-.63 2.41.38 2.92h4.57c2.15 0 2.28.38 2.28 3.8v25.1c0 9.38-.51 10.78-4.82 11.41l-2.79.38c-.89.89-.76 3.17.25 3.68 5.2-.25 9.51-.38 13.69-.38 5.96 0 10.9.13 16.61.38 1.01-.51 1.14-2.79.25-3.68l-4.94-.51c-4.44-.51-4.95-1.9-4.95-11.28v-24.98c0-3.68 0-3.93 2.66-3.93h12.42c1.02-.63 1.77-1.78 1.77-3.93 0-.89-.25-1.65-.76-2.03h-13.31Z" fill="currentColor"/><path d="M402.51 532.39c1.01-.51 1.14-2.79.25-3.68l-4.95-.51c-4.44-.51-4.95-1.9-4.95-11.28v-17.37c0-6.21.76-9.13 3.68-9.13.76 0 2.92.25 6.08 2.41 1.01.63 2.16 1.01 3.42 1.01 3.43 0 7.1-2.41 7.1-7.36 0-3.3-2.53-6.21-6.97-6.21s-8.49 3.8-12.43 6.59c-.76 0-1.27-.64-1.27-1.52 0-1.14.13-3.3.25-5.71-.25-.76-1.01-1.14-1.77-1.14-3.8 2.28-10.52 5.07-15.98 6.85-.5.63-.5 2.41-.13 2.92l1.52.89c3.17 1.9 3.17 3.42 3.17 9.13v18.64c0 9.38-.51 10.78-4.82 11.41l-2.28.38c-.89.89-.76 3.17.25 3.68 4.82-.25 9-.38 13.19-.38 4.69 0 9 .13 16.61.38ZM413.95 508.42c0 14.46 9.76 25.36 24.47 25.36 7.74 0 17.12-3.8 21.43-13.95-.13-1.14-1.52-2.41-2.79-2.03-2.92 4.69-7.1 6.34-12.17 6.34-11.28 0-19.15-9.13-19.15-20.54 0-1.52.25-1.65 2.67-1.65h21.93c5.07 0 7.99-.51 8.75-1.65.51-1.01.63-1.77.63-2.92 0-11.03-9.64-17.12-19.02-17.12-16.99 0-26.75 13.82-26.75 28.15Zm25.23-23.33c5.46 0 8.37 3.68 8.37 8.24 0 1.14-.51 2.15-1.27 2.66-.89.51-2.53.89-6.21.89h-11.54c-1.52 0-1.77-.38-1.77-.89 0-2.66 3.93-10.9 12.42-10.9ZM508.91 517.8c-2.92 4.69-7.1 6.34-12.17 6.34-11.28 0-19.14-9.13-19.14-20.54 0-1.52.25-1.65 2.66-1.65h21.94c5.07 0 7.99-.51 8.75-1.65.5-1.01.64-1.77.64-2.92 0-11.03-9.64-17.12-19.02-17.12-16.99 0-26.75 13.82-26.75 28.15s9.76 25.36 24.47 25.36c7.74 0 17.12-3.8 21.43-13.95-.12-1.14-1.52-2.41-2.79-2.03Zm-17.87-32.71c5.45 0 8.36 3.68 8.36 8.24 0 1.14-.5 2.15-1.26 2.66-.89.51-2.54.89-6.21.89h-11.54c-1.52 0-1.78-.38-1.78-.89 0-2.66 3.93-10.9 12.43-10.9ZM77.14 634.85c-.38 0-2.16 1.39-4.31 1.39-4.56 0-6.47-3.8-6.09-11.16l.89-19.78c.51-11.16-5.71-15.85-15.72-15.85-6.47 0-15.6 4.31-19.53 7.99-4.18 3.93-4.94 6.59-4.94 8.11 0 1.14.76 2.03 2.41 2.03 2.79 0 6.34-1.14 8.11-2.28 1.4-.89 2.16-2.16 2.41-4.56.51-3.68 3.17-5.58 6.72-5.58 6.21 0 7.99 5.58 7.73 12.04l-.12 3.3c0 1.27-.38 2.41-2.92 3.3-4.69 1.78-9.51 3.55-13.95 5.07-8.75 3.04-10.52 7.23-10.52 11.79 0 6.34 4.31 12.3 12.93 12.3 4.56 0 8.37-1.77 10.78-3.3 1.9-1.14 2.79-1.77 3.42-1.77s1.14.63 2.03 1.52c2.41 2.66 5.96 3.55 9.13 3.55 3.93 0 10.14-2.03 12.68-5.58.38-1.14-.51-2.53-1.14-2.53Zm-23.08-4.95c-.13 3.04-1.52 6.09-6.09 6.09-4.82 0-7.1-4.06-7.1-7.35 0-5.45 3.3-7.23 6.85-8.49 2.28-.89 4.56-1.52 5.58-1.52.63 0 1.01.76 1.01 2.16l-.25 9.13ZM139.39 637.51c-4.31-.64-4.82-2.03-4.82-11.41v-19.65c0-9.89-4.82-16.99-15.09-16.99-7.86 0-11.41 3.04-17.37 6.34-.76-.13-1.14-.38-1.14-1.27 0-1.02 0-3.42.25-5.83-.25-.51-.76-1.01-1.65-1.01-4.06 2.28-11.03 5.32-16.48 6.85-.51.63-.51 2.41-.13 2.92l1.52.89c3.17 1.9 3.17 3.42 3.17 9.13v18.64c0 9.38-.51 10.78-4.82 11.41l-2.79.38c-.89.89-.76 3.17.25 3.68 5.32-.25 9.64-.38 13.69-.38 4.69 0 9 .13 13.44.38 1.01-.51 1.14-2.79.25-3.68l-1.9-.25c-4.31-.76-4.82-2.16-4.82-11.54v-16.99c0-4.69.13-5.83 1.77-8.12 1.27-1.9 4.44-3.93 8.37-3.93 7.61 0 10.14 5.07 10.14 11.54v17.5c0 9.38-.51 10.78-4.82 11.54l-1.9.25c-.89.89-.76 3.17.25 3.68 4.44-.25 8.75-.38 12.93-.38 4.69 0 9 .13 14.33.38 1.01-.51 1.14-2.79.25-3.68l-2.92-.38ZM202.91 635.99c-2.16 0-3.04-3.93-3.04-15.47v-50.59c0-5.45.13-13.31.38-18.39-.25-.63-1.01-1.14-1.77-1.01-5.07 2.03-11.67 4.69-16.61 6.09-.89.38-.76 2.41 0 2.92l1.78 1.14c2.79 1.65 2.92 2.54 2.92 11.03v16.61c0 1.39-.25 1.9-.76 2.03-1.65-.51-4.06-.89-7.36-.89-15.85 0-30.43 10.9-30.43 29.16 0 12.68 9 24.34 23.45 24.34 6.09 0 10.78-2.92 14.58-5.71l.64.13c.25.64.25 1.65.12 3.55l-.26 1.9c.26.76.89 1.27 1.52 1.4 4.56-2.03 13.56-4.18 20.03-4.82 1.4-.76 1.14-3.8.13-4.56-1.91.76-3.93 1.14-5.33 1.14Zm-16.36-6.97c0 1.77-.25 2.92-.89 3.55-1.01 1.14-4.44 2.79-7.48 2.79-9 0-15.85-8.62-15.85-21.68 0-10.65 5.45-19.14 14.07-19.14 3.93 0 6.72 1.9 8.5 4.31 1.27 1.78 1.64 3.55 1.64 6.09v24.09ZM255.77 591.23c-2.41 0-5.58-.13-9.51-.38-.89.51-1.01 2.28-.25 3.17l2.92.38c1.52.26 2.28.76 2.28 1.9 0 .76-.51 3.42-2.28 7.86-1.27 3.3-5.58 14.33-7.23 18.64-1.01 2.66-1.9 4.44-2.41 4.82-.38-.38-.89-1.52-2.03-4.06-2.92-6.59-6.59-15.47-9.51-24.22-1.27-3.8-1.14-4.44 2.79-5.07l1.52-.25c.89-.63.76-2.66-.13-3.17-4.31.25-6.84.38-10.27.38-4.31 0-8.75-.13-11.92-.38-1.01.38-1.14 2.15-.38 3.17l2.54.38c4.56.64 5.7 4.69 7.61 9.38l10.65 25.74c1.9 4.69 3.8 9.63 4.82 13.19.38.38 1.01.51 1.65.51.51 0 1.01-.13 1.27-.51 1.65-4.31 2.92-7.23 4.19-10.4 2.03-5.2 9.89-23.58 11.66-27.01 3.68-7.1 4.82-10.4 9.26-11.03l1.9-.25c.76-.76.63-2.66-.25-3.17-3.55.25-5.71.38-8.88.38ZM308.92 629.65c-3.93 4.94-7.48 6.21-11.67 6.21-13.56 0-21.05-10.9-21.05-23.71 0-3.17.13-3.42 3.43-3.42h23.46c5.32 0 7.1-.13 7.48-.89.25-.51.51-1.52.51-3.3 0-7.61-7.1-15.09-18-15.09-15.22 0-25.49 13.06-25.49 28.65 0 5.58 1.52 11.54 5.32 16.48 3.68 4.82 10.14 8.37 18.39 8.37 6.59 0 15.72-3.17 19.9-11.79-.13-1.14-1.01-1.9-2.28-1.52Zm-17.24-36.39c7.35 0 9.76 4.44 9.76 7.99 0 1.65-.38 2.15-.76 2.41-1.02.76-3.8 1.27-13.19 1.27h-9.01c-.89 0-.89-.38-.89-.64.13-4.18 6.59-11.03 14.07-11.03ZM359.63 594.02c-2.79 0-3.68-.25-7.74-2.03-2.92-1.27-7.35-2.54-12.17-2.54-11.29 0-20.67 8.24-20.67 19.15 0 8.11 5.2 13.06 9.51 15.34 0 .63-.63 1.65-1.27 2.41-2.15 2.28-4.56 4.44-6.72 5.83-1.4 1.01-1.9 1.52-1.9 2.16 0 4.44 4.31 8.75 9.25 10.02 1.14.76.13 1.9-1.01 3.04-2.92 2.91-6.47 6.21-8.62 8.49-.89 1.01-1.39 2.66-1.39 4.69 0 6.34 5.45 14.71 21.05 14.71 16.48 0 31.57-10.14 31.57-23.96 0-12.68-10.65-13.95-17.75-13.95-5.58 0-10.78.38-15.09.38-5.96 0-8.87-2.41-8.87-5.32 0-3.68 4.06-6.09 5.58-6.97 1.52.13 3.29.38 5.58.38 16.1 0 21.3-11.41 21.3-20.16 0-2.16 0-4.31-.25-6.47h9.13c1.9-.25 2.15-4.56.76-5.2h-10.27Zm-27.13 52.62c1.77-1.14 6.84-1.39 10.9-1.39h4.31c9.13 0 14.45 3.3 14.45 11.03 0 7.23-7.48 13.57-18.76 13.57s-16.99-5.71-16.99-12.55c0-4.82 3.04-8.75 6.09-10.65Zm8.37-24.47c-6.08 0-11.54-5.83-11.54-14.84s4.57-14.2 10.65-14.2c7.74 0 11.28 7.23 11.28 15.85 0 7.73-3.55 13.19-10.4 13.19ZM421.25 635.73c-.38 0-1.01.51-1.65.89-.76.38-1.9.76-3.17.76-4.95 0-6.09-5.2-5.83-11.03l.76-22.06c.38-9.51-4.06-14.83-13.19-14.83s-23.58 9-23.58 15.6c0 1.14.64 1.78 1.78 1.78 1.9 0 5.33-.89 7.23-2.41 1.01-.76 1.14-2.28 1.27-4.31.25-3.93 4.56-5.71 8.11-5.71 7.86 0 9.38 6.34 9.26 11.03l-.13 5.83c-.12 1.9-.25 3.04-2.15 3.68l-15.09 5.45c-8.11 2.92-10.52 5.83-10.52 10.78 0 3.55 1.52 6.72 3.93 8.88 2.15 1.9 5.2 2.92 8.87 2.92s6.34-1.65 9.13-3.17c2.53-1.39 4.05-2.54 4.94-2.54.76 0 1.52 1.02 2.03 1.78 2.16 2.79 5.2 3.93 8.24 3.93 6.21 0 10.65-4.94 10.65-5.58 0-.89-.38-1.65-.89-1.65Zm-19.78-7.61c0 2.66-.12 4.44-1.65 5.96-1.27 1.27-5.2 3.17-7.74 3.17-6.47 0-7.99-5.45-7.99-7.61 0-4.95 3.68-6.85 11.16-9.38 2.28-.76 4.44-1.27 5.2-1.27s1.26.25 1.26 1.65l-.25 7.48ZM481.72 638.02c-4.56-.64-4.82-1.9-4.82-11.03v-21.81c0-8.5-4.31-15.72-14.84-15.72-6.47 0-12.42 3.17-17.75 6.47-.89 0-1.4-.64-1.4-1.39 0-1.14 0-3.04.25-5.96-.25-.63-.89-.89-1.4-.89-2.54 1.9-9.76 5.2-12.68 6.21-.63.38-.63 1.77-.13 2.28l1.14.76c3.42 2.28 3.42 2.91 3.42 7.86v22.19c0 9.13-.12 10.4-4.81 11.03l-2.67.38c-.89.63-.63 2.79.25 3.17 3.55-.25 7.35-.38 11.92-.38s8.12.13 11.54.38c.89-.38 1.14-2.53.25-3.17l-2.28-.38c-4.56-.76-4.82-1.9-4.82-11.03v-19.4c0-3.68.25-5.45 1.9-7.61 1.78-2.41 5.96-4.44 10.78-4.44 8.63 0 11.92 5.32 11.92 12.55v18.89c0 9.13-.13 10.27-4.82 11.03l-2.41.38c-.89.63-.63 2.79.25 3.17 3.43-.25 7.23-.38 11.79-.38s8.12.13 11.92.38c.89-.38 1.14-2.53.25-3.17l-2.79-.38ZM229.64 313.68c-3.23 0-5.76 5.1-5.76 11.6s2.48 11.58 5.76 11.58 5.8-5.09 5.8-11.58-2.55-11.6-5.8-11.6ZM283.04 336.92c3.28 0 5.75-4.99 5.75-11.6s-2.52-11.56-5.75-11.56-5.76 5.08-5.76 11.56 2.48 11.6 5.76 11.6Z" fill="currentColor"/><path d="M155.17 192.61c30.63 29.06 61.86 57.58 93.71 85.33-9.6.92-17.72 1.29-27 8.19-10.25 7.63-18.13 18.08-25.64 28.28-6.15 8.35-13.23 14.26-20.13 21.82-7.98 8.74-10.32 20.11-8.85 31.65-3.2.77-6.4 1.54-9.54 2.58-7.48 2.48-17.64 5.89-22.05 13-.84 1.35.54 5.11.16 5.72 4.93-7.95 17.27-11.51 25.63-13.96 2.25-.66 4.54-1.11 6.81-1.63.74 3.14 1.79 6.24 3.03 9.3-3.42 1.36-6.82 2.81-10.12 4.5-6.99 3.6-16.75 8.56-19.98 16.33-.65 1.55.51 4.88.16 5.72 3.55-8.55 15.24-14 23.03-17.69 3.01-1.43 6.1-2.64 9.2-3.8 7.99 15.88 22.07 29.08 37.19 31.98 10.27 1.97 20.31-1.49 28.91-7 3.69-2.37 14.76-16.34 18.17-16.69 2.01-.21 4.33 3.12 6.62 5.2 7.17 6.52 15.47 12.43 24.65 15.72 21.9 7.84 44.8-8.52 55.83-30.01 3.95 1.39 7.84 2.95 11.66 4.76 7.78 3.68 19.44 9.16 23.04 17.68-.36-.85.82-4.16.16-5.72-3.28-7.77-12.95-12.68-20-16.31-4.09-2.11-8.29-3.91-12.57-5.51 1.42-3.47 2.52-7 3.26-10.57 4.17.76 8.32 1.7 12.42 2.9 8.33 2.44 20.74 6.03 25.65 13.97-.39-.64 1.01-4.35.16-5.72-4.42-7.14-14.57-10.51-22.07-13.02-5-1.67-10.1-2.86-15.25-3.83.63-6.66-.05-13.24-2.47-19.27-2.73-6.81-8.71-10.92-14.25-15.3-10.56-8.36-15.49-19.23-23.56-29.97-13.28-17.67-26.41-22.39-45.16-23.65 27.43-23.92 54.37-48.43 80.93-73.31 23.27-21.79 51.56-43.93 69.23-70.83 15.88-24.17 26.88-59.24 20.31-88.38-8.47-37.51-58.49-54.42-90.05-38.26-49.43 25.31-70.11 73.77-87.4 123.25-.04-.57-.03-1.18-.19-1.65-14.9-43.26-32.57-84.03-71.93-110.34-20.84-13.93-43.72-24.29-68.31-13.74-12.94 5.55-26.1 15.91-34.29 27.56-17.27 24.57-3.92 66.29 7.68 89.84 13.89 28.22 40.8 49.64 63.2 70.89Zm140.72 103.23c15.66 11.33 20.85 31.14 35.17 43.24 4.11 3.47 8.98 6.13 12.62 10.16 4.68 5.2 5.18 10.49 3.94 15.92-10.55-1.67-21.29-2.2-31.99-1.66-.53.03-.35 5.95 0 5.94 10.13-.51 20.24-.06 30.22 1.38-.73 1.71-1.46 3.41-2.38 5.16-.73 1.39-1.56 2.73-2.34 4.09-9.96-3.16-20.24-5.26-30.67-6.33-.24-.03-.64 5.87 0 5.94 9.39.96 18.62 2.76 27.63 5.39-10.81 16.56-26.12 28.8-47.33 22.02-7.33-2.34-14.04-6.44-20.12-11.1-1.39-1.07-5.84-6.16-8.97-8.82 2.31-3.55 2.67-10.68 2.71-13.47 2.35-1.43 9.9-6.35 10.62-11.07.22-1.44-.2-2.77-1.21-3.86-.62-.67-1.48-1.04-2.49-1.05h-.06c-3.93 0-10.1 5.57-12.43 7.83-2.19-2.12-7.8-7.15-12.12-6.92-1.36.05-2.54.62-3.38 1.64-.86 1.01-1.19 2.23-.95 3.52.81 4.32 8.06 8.72 10.36 10.01.13 2.77.79 10.08 3.04 13.47-5.22 3.98-14.07 13.86-17.55 15.95-19.61 11.79-38.64 5.92-53.04-10.92-1.58-1.85-3.42-4.07-5.28-6.47 9.95-3.15 20.22-5.22 30.65-6.29.62-.06.26-5.96 0-5.94-11.63 1.19-23.11 3.6-34.13 7.43a60.528 60.528 0 0 1-4.71-8.26c12.17-2.44 24.58-3.11 37.03-2.48.34.02.54-5.91 0-5.94-13.13-.66-26.29.08-39.09 2.87-1.06-3.87-1.33-7.72-.05-11.28 2.23-6.19 8.32-10.92 12.97-15.25 15.53-14.47 24.64-35.17 43.12-46.57 10.17-6.28 19.08-4.65 30.13-6.33 14.15.24 28.01-.64 40.04 8.06ZM88.33 37.79c9.12-10.47 20.87-19.7 34.04-24.33 21.81-7.65 41.66.82 60.22 12.45 40.72 25.51 59.41 65.58 74.66 109.15-.38 1.09-.78 2.18-1.15 3.27-.99 2.89.85 8.59.28 10.25 13.92-40.59 28.2-82.98 61.66-111.99 16.15-14.01 37.69-28.21 59.95-26.69 16.59 1.13 31.27 10.35 42.98 21.62 16.95 16.32 17.57 35.62 10.44 57.89-4.74 14.8-11.45 29.56-21.41 41.6-19.71 23.82-43.83 44.66-66.36 65.7-28.36 26.48-57.05 52.67-86.43 78.01-50.45-43.49-101.8-88.13-146.9-137.21-21.44-23.32-45.97-72.18-21.98-99.72Z" fill="currentColor"/></svg><svg width="35" height="34" fill="none" viewBox="-1 -1 35 34" id="facebook" y="519" xmlns="http://www.w3.org/2000/svg"><path fill-rule="evenodd" clip-rule="evenodd" d="M18.246 17.26v8.822H14.3V17.26h-3.2v-3.65h3.205v-2.78c0-3.165 1.885-4.912 4.768-4.912.946.013 1.89.096 2.826.247v3.106h-1.596a1.825 1.825 0 0 0-2.058 1.972v2.367h3.5l-.56 3.65h-2.94Z" fill="#131313"/></svg><svg width="46" height="38" fill="none" viewBox="-1 -1 46 38" id="filter" y="553" xmlns="http://www.w3.org/2000/svg"><mask id="aoa" style="mask-type:alpha" maskUnits="userSpaceOnUse" x="0" y="6" width="11" height="4"><path fill-rule="evenodd" clip-rule="evenodd" d="M0 6.558h10.349v2.587H0V6.558Z" fill="#131313"/></mask><g mask="url(#aoa)"><path fill-rule="evenodd" clip-rule="evenodd" d="M10.349 9.145H1.294a1.293 1.293 0 1 1 0-2.587h9.055a1.294 1.294 0 1 0 0 2.587Z" fill="#131313"/></g><mask id="aob" style="mask-type:alpha" maskUnits="userSpaceOnUse" x="10" y="6" width="34" height="4"><path fill-rule="evenodd" clip-rule="evenodd" d="M10.348 6.558H43.86v2.586h-33.51V6.558Z" fill="#131313"/></mask><g mask="url(#aob)"><path fill-rule="evenodd" clip-rule="evenodd" d="M43.86 7.851c0 .714-.58 1.293-1.295 1.293H10.348a1.293 1.293 0 0 0 0-2.586h32.217c.714 0 1.294.58 1.294 1.293Z" fill="#131313"/></g><mask id="aoc" style="mask-type:alpha" maskUnits="userSpaceOnUse" x="0" y="18" width="34" height="3"><path fill-rule="evenodd" clip-rule="evenodd" d="M0 18.2h33.51v2.586H0V18.2Z" fill="#131313"/></mask><g mask="url(#aoc)"><path fill-rule="evenodd" clip-rule="evenodd" d="M33.51 20.786H1.295a1.294 1.294 0 1 1 0-2.587H33.51a1.293 1.293 0 0 0 0 2.587Z" fill="#131313"/></g><mask id="aod" style="mask-type:alpha" maskUnits="userSpaceOnUse" x="33" y="18" width="11" height="3"><path fill-rule="evenodd" clip-rule="evenodd" d="M33.51 18.2H43.86v2.586H33.51V18.2Z" fill="#131313"/></mask><g mask="url(#aod)"><path fill-rule="evenodd" clip-rule="evenodd" d="M43.86 19.492c0 .715-.58 1.294-1.295 1.294H33.51a1.294 1.294 0 1 0 0-2.587h9.055c.714 0 1.294.58 1.294 1.293Z" fill="#131313"/></g><mask id="aoe" style="mask-type:alpha" maskUnits="userSpaceOnUse" x="0" y="29" width="11" height="4"><path fill-rule="evenodd" clip-rule="evenodd" d="M0 29.84h10.349v2.588H0V29.84Z" fill="#131313"/></mask><g mask="url(#aoe)"><path fill-rule="evenodd" clip-rule="evenodd" d="M10.349 32.428H1.294a1.294 1.294 0 1 1 0-2.587h9.055a1.293 1.293 0 1 0 0 2.587Z" fill="#131313"/></g><mask id="aof" style="mask-type:alpha" maskUnits="userSpaceOnUse" x="10" y="29" width="34" height="4"><path fill-rule="evenodd" clip-rule="evenodd" d="M10.348 29.84H43.86v2.588h-33.51V29.84Z" fill="#131313"/></mask><g mask="url(#aof)"><path fill-rule="evenodd" clip-rule="evenodd" d="M43.86 31.134c0 .715-.58 1.294-1.295 1.294H10.348a1.293 1.293 0 0 0 0-2.587h32.217c.714 0 1.294.579 1.294 1.293Z" fill="#131313"/></g><path fill-rule="evenodd" clip-rule="evenodd" d="M9.055 31.134a1.293 1.293 0 1 1 2.586 0 1.293 1.293 0 0 1-2.586 0Zm3.53-1.293a2.587 2.587 0 1 0-4.474 2.596 2.587 2.587 0 0 0 4.475-2.596Z" fill="#131313"/><mask id="aog" style="mask-type:alpha" maskUnits="userSpaceOnUse" x="6" y="27" width="9" height="8"><path fill-rule="evenodd" clip-rule="evenodd" d="M6.468 27.283h7.76v7.703h-7.76v-7.703Z" fill="#131313"/></mask><g mask="url(#aog)"><path fill-rule="evenodd" clip-rule="evenodd" d="M11.642 31.134a1.293 1.293 0 1 1-2.587.001 1.293 1.293 0 0 1 2.587-.001Zm2.354-1.293a3.88 3.88 0 0 0-7.295 0 3.714 3.714 0 0 0 0 2.587 3.88 3.88 0 0 0 7.295 0c.31-.835.31-1.753 0-2.587Z" fill="#131313"/></g><path fill-rule="evenodd" clip-rule="evenodd" d="M32.218 19.492a1.293 1.293 0 1 1 2.586 0 1.293 1.293 0 0 1-2.586 0Zm3.53-1.293a2.587 2.587 0 1 0-4.474 2.598 2.587 2.587 0 0 0 4.475-2.598Z" fill="#131313"/><path fill-rule="evenodd" clip-rule="evenodd" d="M34.805 19.492a1.294 1.294 0 1 1-2.588.001 1.294 1.294 0 0 1 2.588 0Zm2.354-1.293a3.881 3.881 0 0 0-7.295 0 3.703 3.703 0 0 0 0 2.587 3.88 3.88 0 0 0 7.295 0c.31-.834.31-1.753 0-2.587ZM9.055 7.851a1.293 1.293 0 1 1 2.586 0 1.293 1.293 0 0 1-2.586 0Zm3.53-1.293A2.587 2.587 0 1 0 8.11 9.154a2.587 2.587 0 0 0 4.476-2.596Z" fill="#131313"/><mask id="aoh" style="mask-type:alpha" maskUnits="userSpaceOnUse" x="6" y="4" width="9" height="8"><path fill-rule="evenodd" clip-rule="evenodd" d="M6.468 4h7.76v7.703h-7.76V4Z" fill="#131313"/></mask><g mask="url(#aoh)"><path fill-rule="evenodd" clip-rule="evenodd" d="M11.642 7.851a1.293 1.293 0 1 1-2.587 0 1.293 1.293 0 0 1 2.587 0Zm2.354-1.293a3.88 3.88 0 0 0-7.295 0 3.712 3.712 0 0 0 0 2.586 3.881 3.881 0 0 0 7.295 0c.31-.834.31-1.752 0-2.586Z" fill="#131313"/></g></svg><svg width="35" height="34" fill="none" viewBox="-1 -1 35 34" id="hamburger" y="591" xmlns="http://www.w3.org/2000/svg"><path fill-rule="evenodd" clip-rule="evenodd" d="M25.5 21v2h-18v-2h18Zm-4-6v2h-14v-2h14Zm4-6v2h-18V9h18Z" fill="#131313"/></svg><svg width="35" height="34" fill="none" viewBox="-1 -1 35 34" id="heart-empty" y="625" xmlns="http://www.w3.org/2000/svg"><path fill-rule="evenodd" clip-rule="evenodd" d="M16.5 25.414 8.126 17.04A6.421 6.421 0 0 1 16.5 7.348a6.421 6.421 0 0 1 8.374 9.692L16.5 25.414ZM12.667 8.08a4.421 4.421 0 0 0-3.126 7.547l6.959 6.96 6.959-6.96a4.42 4.42 0 1 0-6.252-6.252l-.707.707-.707-.707a4.392 4.392 0 0 0-3.126-1.295Z" fill="#131313"/></svg><svg width="35" height="34" fill="none" viewBox="-1 -1 35 34" id="heart-full" y="659" xmlns="http://www.w3.org/2000/svg"><path fill-rule="evenodd" clip-rule="evenodd" d="M16.5 25.414 8.126 17.04A6.421 6.421 0 0 1 16.5 7.348a6.421 6.421 0 0 1 8.374 9.692L16.5 25.414Z" fill="#131313"/></svg><svg width="34" height="34" fill="none" viewBox="-1 -1 34 34" id="instagram" y="693" xmlns="http://www.w3.org/2000/svg"><path fill-rule="evenodd" clip-rule="evenodd" d="M25.93 20.123a5.96 5.96 0 0 1-1.615 4.189 5.912 5.912 0 0 1-4.19 1.615c-1.651.094-6.6.094-8.25 0a5.963 5.963 0 0 1-4.19-1.615 5.92 5.92 0 0 1-1.615-4.19c-.093-1.65-.093-6.6 0-8.25a5.942 5.942 0 0 1 1.615-4.19 5.947 5.947 0 0 1 4.19-1.61c1.651-.093 6.6-.093 8.25 0a5.954 5.954 0 0 1 4.19 1.616 5.92 5.92 0 0 1 1.615 4.189c.093 1.65.093 6.595 0 8.246ZM24.2 16c0-1.455.12-4.578-.4-5.894a3.373 3.373 0 0 0-1.9-1.9c-1.312-.517-4.439-.4-5.894-.4s-4.578-.121-5.894.4a3.375 3.375 0 0 0-1.9 1.9c-.517 1.312-.4 4.439-.4 5.894s-.121 4.578.4 5.894a3.377 3.377 0 0 0 1.9 1.9c1.312.517 4.44.4 5.894.4 1.454 0 4.578.12 5.894-.4a3.375 3.375 0 0 0 1.9-1.9c.519-1.312.4-4.44.4-5.894Zm-3.07 0a5.127 5.127 0 1 1-10.252 0 5.127 5.127 0 0 1 10.251 0h.001Zm-1.794 0a3.333 3.333 0 1 0-6.665 0 3.333 3.333 0 0 0 6.664 0h.001Zm2-4.141a1.2 1.2 0 1 1 1.2-1.2 1.196 1.196 0 0 1-1.197 1.2h-.003Z" fill="#131313"/></svg><svg width="34" height="34" fill="none" viewBox="-1 -1 34 34" id="minus" y="727" xmlns="http://www.w3.org/2000/svg"><path fill-rule="evenodd" clip-rule="evenodd" d="M25 15H7v2h18v-2Z" fill="#131313"/></svg><svg width="34" height="34" fill="none" viewBox="-1 -1 34 34" id="pinterest" y="761" xmlns="http://www.w3.org/2000/svg"><path d="M16.015 6C10.483 6 6 10.473 6 15.99c0 4.232 2.638 7.847 6.364 9.3-.088-.79-.166-2.002.034-2.865.183-.78 1.175-4.964 1.175-4.964s-.3-.6-.3-1.484c0-1.386.808-2.426 1.811-2.426.855 0 1.268.64 1.268 1.406 0 .858-.545 2.14-.829 3.327-.238.994.502 1.804 1.483 1.804 1.778 0 3.148-1.87 3.148-4.572 0-2.384-1.723-4.058-4.184-4.058-2.848 0-4.518 2.135-4.518 4.333 0 .86.329 1.786.742 2.284.083.1.094.188.071.288-.075.312-.244.999-.279 1.135-.044.188-.143.226-.335.138-1.248-.575-2.032-2.398-2.032-3.872 0-3.146 2.296-6.043 6.616-6.043 3.474 0 6.175 2.472 6.175 5.769 0 3.446-2.177 6.218-5.207 6.218-1.014 0-1.966-.524-2.304-1.149l-.625 2.373c-.225.871-.84 1.96-1.252 2.622a10.07 10.07 0 0 0 2.966.446C21.508 26 26 21.53 26 16.01c0-5.518-4.493-9.988-10.012-9.988L16.015 6Z" fill="#131313"/></svg><svg width="34" height="34" fill="none" viewBox="-1 -1 34 34" id="plus" y="795" xmlns="http://www.w3.org/2000/svg"><path fill-rule="evenodd" clip-rule="evenodd" d="M25 15h-8V7h-2v8H7v2h8v8h2v-8h8v-2Z" fill="#131313"/></svg><svg width="34" height="34" fill="none" viewBox="-1 -1 34 34" id="plus-white" y="829" xmlns="http://www.w3.org/2000/svg"><path fill-rule="evenodd" clip-rule="evenodd" d="M25 15h-8V7h-2v8H7v2h8v8h2v-8h8v-2Z" fill="#fff"/></svg><svg width="35" height="34" fill="none" viewBox="-1 -1 35 34" id="search" y="863" xmlns="http://www.w3.org/2000/svg"><path fill-rule="evenodd" clip-rule="evenodd" d="M15.5 22a7 7 0 1 0 0-14 7 7 0 0 0 0 14Zm7.032-1.382 3.675 3.675-1.414 1.414-3.675-3.675a9 9 0 1 1 1.414-1.414Z" fill="#131313"/></svg><svg width="34" height="34" fill="none" viewBox="-1 -1 34 34" id="snapchat" y="897" xmlns="http://www.w3.org/2000/svg"><path fill-rule="evenodd" clip-rule="evenodd" d="M9.597 13.926c-.17 0-.388.048-.472.273-.138.371.146.635.442.844.084.06.239.161.418.279.399.262.894.588 1.052.737.273.259.243.49.216.694l-.003.017c-.023.182-.19.818-.666 1.559-.673 1.05-1.674 1.907-2.975 2.545-.158.078-.167.121-.167.123 0 0 .01.07.228.192.445.248.805.345 1.12.431.274.074.51.137.727.28.256.168.29.432.319.645.02.161.039.263.104.309.109.077.378.087.69.099.468.019 1.109.043 1.84.288.374.125.689.323 1.023.531.643.4 1.307.815 2.509.815 1.205 0 1.874-.417 2.522-.821.332-.206.645-.402 1.01-.525.733-.245 1.373-.269 1.84-.288.313-.012.582-.022.69-.099.066-.046.084-.148.105-.309.028-.213.063-.477.319-.645.216-.141.45-.205.72-.278.319-.086.68-.182 1.127-.433.218-.122.228-.192.228-.193 0-.001-.007-.043-.165-.123-1.3-.637-2.3-1.494-2.974-2.544-.571-.89-.665-1.553-.666-1.56l-.002-.017c-.028-.215-.057-.436.217-.693.157-.149.652-.475 1.05-.737.18-.118.335-.219.418-.279.528-.375.52-.637.443-.844-.085-.225-.303-.273-.471-.273-.07 0-.142.009-.212.024a5.103 5.103 0 0 0-.786.264c-.172.068-.322.128-.444.157a.53.53 0 0 1-.135.019c-.11 0-.192-.031-.251-.094-.084-.092-.086-.219-.08-.307l.004-.057c.035-.546.1-1.563.02-2.505-.107-1.25-.471-1.899-1.024-2.541a4.141 4.141 0 0 0-1.03-.839c-.726-.422-1.558-.636-2.471-.636-.91 0-1.74.214-2.468.636a4.09 4.09 0 0 0-1.032.839c-.553.644-.917 1.294-1.024 2.541-.076.888-.02 1.837.015 2.404l.009.159c.005.088.002.215-.083.306a.324.324 0 0 1-.248.094.51.51 0 0 1-.135-.019c-.121-.029-.271-.089-.444-.157a5.2 5.2 0 0 0-.785-.264 1.044 1.044 0 0 0-.212-.024ZM15.999 26c-1.6 0-2.546-.592-3.237-1.024-.273-.171-.51-.319-.73-.393-.545-.182-1.03-.202-1.456-.219l-.008-.001c-.505-.019-.982-.039-1.421-.347a1.585 1.585 0 0 1-.401-.415 1.716 1.716 0 0 1-.191-.387c-.037-.101-.06-.155-.104-.195l-.002-.002c-.002-.001-.04-.035-.192-.081a5.634 5.634 0 0 1-1.261-.513 2.139 2.139 0 0 1-.54-.415c-.423-.442-.56-.988-.375-1.496.197-.545.624-.762 1.037-.973.068-.034.138-.07.207-.107.875-.482 1.56-1.084 2.037-1.792a4.17 4.17 0 0 0 .349-.624c.039-.112.027-.137.02-.151a.379.379 0 0 0-.086-.081c-.152-.101-.307-.205-.415-.275a15.31 15.31 0 0 1-.461-.309c-.401-.285-.682-.589-.857-.929a1.91 1.91 0 0 1-.09-1.573c.272-.731.95-1.185 1.77-1.185.152 0 .303.016.453.045-.001-.453.015-.874.047-1.252.146-1.723.74-2.627 1.36-3.348a5.43 5.43 0 0 1 1.39-1.136C13.78 6.277 14.844 6 16 6c1.162 0 2.226.278 3.164.825A5.448 5.448 0 0 1 20.55 7.96c.62.721 1.216 1.625 1.362 3.348.033.395.049.815.046 1.252a2.32 2.32 0 0 1 .453-.045c.82 0 1.499.454 1.77 1.185a1.918 1.918 0 0 1-.09 1.573c-.176.342-.456.646-.857.929-.09.064-.221.151-.388.261l-.072.047c-.134.087-.295.193-.431.285a.317.317 0 0 0-.072.068c-.007.016-.02.041.014.143.097.215.216.43.355.636.485.722 1.192 1.337 2.097 1.825l.108.055c.05.026.106.053.158.082.049.022.103.051.159.085.287.163.6.387.758.825.18.492.055 1.026-.34 1.463l-.008.008a2.118 2.118 0 0 1-.565.44 5.572 5.572 0 0 1-1.278.519.604.604 0 0 0-.181.078c-.045.039-.067.093-.105.195a1.594 1.594 0 0 1-.59.798c-.442.309-.918.329-1.422.348l-.008.001c-.426.017-.911.037-1.456.219-.204.069-.43.209-.692.371l-.035.022c-.697.432-1.65 1.024-3.241 1.024Z" fill="#131313"/></svg><svg width="34" height="34" fill="none" viewBox="-1 -1 34 34" id="star-empty" y="931" xmlns="http://www.w3.org/2000/svg"><path d="m18.137 14.02.228.568.61.055 4.296.387-3.294 2.992-.429.39.126.567.971 4.383-3.61-2.283-.535-.338-.534.338-3.61 2.283.972-4.383.125-.567-.43-.39-3.294-2.993 4.297-.387.609-.055.228-.567L16.5 9.958l1.637 4.063Zm-1.111-5.366Z" stroke="#fff" stroke-width="2"/></svg><svg width="34" height="34" fill="none" viewBox="-1 -1 34 34" id="star-full" y="965" xmlns="http://www.w3.org/2000/svg"><path fill-rule="evenodd" clip-rule="evenodd" d="m16.902 8.28 2.162 5.367 5.536.499c.384.034.54.537.249.801l-4.2 3.815 1.26 5.675c.087.395-.321.705-.65.495L16.5 21.925l-4.757 3.009c-.33.208-.737-.102-.65-.495l1.258-5.676-4.2-3.816c-.291-.264-.136-.766.249-.801l5.536-.499 2.162-5.366a.428.428 0 0 1 .804 0Z" fill="#131313"/></svg><svg width="34" height="34" fill="none" viewBox="-1 -1 34 34" id="star-half" y="999" xmlns="http://www.w3.org/2000/svg"><path fill-rule="evenodd" clip-rule="evenodd" d="m24.6 14.146-5.536-.5-2.162-5.366a.428.428 0 0 0-.804 0l-2.162 5.366-5.536.499c-.385.035-.54.537-.249.801l4.2 3.816-1.258 5.675c-.087.394.32.704.65.495l4.757-3.008 4.758 3.009c.33.21.738-.101.65-.495l-1.258-5.676 4.199-3.815c.291-.264.135-.767-.249-.801Zm-5.242 7.81L16 19.977s.178-9.218.284-8.972l1.526 3.529 3.908.328c.271.022.381.353.175.527l-2.964 2.51.888 3.731c.061.26-.226.463-.459.326Z" fill="#131313"/></svg><svg viewBox="-1 -1 514 514" height="18" width="18" id="sync" y="1033" xmlns="http://www.w3.org/2000/svg"><path d="M492 8h-10c-6.627 0-12 5.373-12 12v110.627C426.929 57.261 347.224 8 256 8 123.228 8 14.824 112.338 8.31 243.493 7.971 250.311 13.475 256 20.301 256h10.016c6.353 0 11.646-4.949 11.977-11.293C48.157 132.216 141.097 42 256 42c82.862 0 154.737 47.077 190.289 116H332c-6.627 0-12 5.373-12 12v10c0 6.627 5.373 12 12 12h160c6.627 0 12-5.373 12-12V20c0-6.627-5.373-12-12-12zm-.301 248h-10.015c-6.352 0-11.647 4.949-11.977 11.293C463.841 380.158 370.546 470 256 470c-82.608 0-154.672-46.952-190.299-116H180c6.627 0 12-5.373 12-12v-10c0-6.627-5.373-12-12-12H20c-6.627 0-12 5.373-12 12v160c0 6.627 5.373 12 12 12h10c6.627 0 12-5.373 12-12V381.373C85.071 454.739 164.777 504 256 504c132.773 0 241.176-104.338 247.69-235.493.339-6.818-5.165-12.507-11.991-12.507z"/></svg><svg viewBox="-1 -1 514 514" height="18" width="18" fill="#898989" id="sync-gray" y="1051" xmlns="http://www.w3.org/2000/svg"><path d="M492 8h-10c-6.627 0-12 5.373-12 12v110.627C426.929 57.261 347.224 8 256 8 123.228 8 14.824 112.338 8.31 243.493 7.971 250.311 13.475 256 20.301 256h10.016c6.353 0 11.646-4.949 11.977-11.293C48.157 132.216 141.097 42 256 42c82.862 0 154.737 47.077 190.289 116H332c-6.627 0-12 5.373-12 12v10c0 6.627 5.373 12 12 12h160c6.627 0 12-5.373 12-12V20c0-6.627-5.373-12-12-12zm-.301 248h-10.015c-6.352 0-11.647 4.949-11.977 11.293C463.841 380.158 370.546 470 256 470c-82.608 0-154.672-46.952-190.299-116H180c6.627 0 12-5.373 12-12v-10c0-6.627-5.373-12-12-12H20c-6.627 0-12 5.373-12 12v160c0 6.627 5.373 12 12 12h10c6.627 0 12-5.373 12-12V381.373C85.071 454.739 164.777 504 256 504c132.773 0 241.176-104.338 247.69-235.493.339-6.818-5.165-12.507-11.991-12.507z"/></svg><svg width="34" height="34" fill="none" viewBox="-1 -1 34 34" id="tiktok" y="1069" xmlns="http://www.w3.org/2000/svg"><path fill-rule="evenodd" clip-rule="evenodd" d="M24.555 14.092a5.34 5.34 0 0 1-4.959-2.39v8.222a6.082 6.082 0 0 1-3.751 5.614 6.077 6.077 0 1 1-2.326-11.69c.127 0 .25.01.376.018v2.995c-.125-.015-.247-.038-.376-.038a3.103 3.103 0 0 0-3.101 3.101 3.103 3.103 0 0 0 3.1 3.102c1.714 0 3.227-1.35 3.227-3.063L16.775 6h2.865a5.336 5.336 0 0 0 4.918 4.764v3.328" fill="#131313"/></svg><svg viewBox="-1 -1 450 514" height="18" width="18" id="trash" y="1103" xmlns="http://www.w3.org/2000/svg"><path d="M440 64H336l-33.6-44.8A48 48 0 0 0 264 0h-80a48 48 0 0 0-38.4 19.2L112 64H8a8 8 0 0 0-8 8v16a8 8 0 0 0 8 8h18.9l33.2 372.3a48 48 0 0 0 47.8 43.7h232.2a48 48 0 0 0 47.8-43.7L421.1 96H440a8 8 0 0 0 8-8V72a8 8 0 0 0-8-8zM171.2 38.4A16.1 16.1 0 0 1 184 32h80a16.1 16.1 0 0 1 12.8 6.4L296 64H152zm184.8 427a15.91 15.91 0 0 1-15.9 14.6H107.9A15.91 15.91 0 0 1 92 465.4L59 96h330z"/></svg><svg viewBox="-1 -1 450 514" height="18" width="18" fill="#898989" id="trash-gray" y="1121" xmlns="http://www.w3.org/2000/svg"><path d="M440 64H336l-33.6-44.8A48 48 0 0 0 264 0h-80a48 48 0 0 0-38.4 19.2L112 64H8a8 8 0 0 0-8 8v16a8 8 0 0 0 8 8h18.9l33.2 372.3a48 48 0 0 0 47.8 43.7h232.2a48 48 0 0 0 47.8-43.7L421.1 96H440a8 8 0 0 0 8-8V72a8 8 0 0 0-8-8zM171.2 38.4A16.1 16.1 0 0 1 184 32h80a16.1 16.1 0 0 1 12.8 6.4L296 64H152zm184.8 427a15.91 15.91 0 0 1-15.9 14.6H107.9A15.91 15.91 0 0 1 92 465.4L59 96h330z"/></svg><svg width="35" height="34" fill="none" viewBox="-1 -1 35 34" id="twitter" y="1139" xmlns="http://www.w3.org/2000/svg"><path fill-rule="evenodd" clip-rule="evenodd" d="M25.192 12.132a12.654 12.654 0 0 1-12.74 12.74 12.652 12.652 0 0 1-6.877-2.01c.36.04.72.058 1.081.056a8.966 8.966 0 0 0 5.56-1.913 4.486 4.486 0 0 1-4.192-3.106 5.6 5.6 0 0 0 .846.07 4.72 4.72 0 0 0 1.178-.153 4.478 4.478 0 0 1-3.586-4.391v-.06c.62.347 1.314.542 2.024.57A4.488 4.488 0 0 1 7.1 7.945a12.727 12.727 0 0 0 9.234 4.686 5.002 5.002 0 0 1-.109-1.025 4.482 4.482 0 0 1 7.75-3.064 8.818 8.818 0 0 0 2.84-1.082 4.464 4.464 0 0 1-1.969 2.465 8.99 8.99 0 0 0 2.58-.69 9.644 9.644 0 0 1-2.247 2.315c.014.195.014.389.014.582Z" fill="#131313"/></svg><svg width="35" height="34" fill="none" viewBox="-1 -1 35 34" id="user" y="1173" xmlns="http://www.w3.org/2000/svg"><path fill-rule="evenodd" clip-rule="evenodd" d="M16.5 18c4.962 0 9 3.589 9 8h-2c0-3.309-3.14-6-7-6s-7 2.691-7 6h-2c0-4.411 4.038-8 9-8Zm0-12a5 5 0 1 1 0 10 5 5 0 0 1 0-10Zm0 2a3 3 0 1 0 0 6 3 3 0 0 0 0-6Z" fill="#131313"/></svg><svg viewBox="-1 -1 680 288" width="94" height="41" id="women-owned" y="1207" xmlns="http://www.w3.org/2000/svg"><g fill="#131313"><path d="M0 10.88h20.1l21.73 65.55C44.18 83.31 46.54 94 46.54 94s3.08-10.5 5.98-17.57L80.77 9.61h2.35l28.43 66.82c2.9 6.88 5.79 17.57 5.79 17.57s2.53-10.68 4.89-17.57l21.74-65.55h18.65l-42.56 124.41h-2.35L87.1 61.95c-2.53-5.98-5.07-15.03-5.07-15.03s-2.9 9.05-5.43 15.03l-31.33 73.34h-2.35L0 10.88ZM303.12 9.61h1.99l58.85 68.82 58.32-68.82h1.99v124.41h-18.29V70.1c0-6.88.72-17.75.72-17.75s-5.98 9.23-11.05 14.85l-30.97 37.31h-2.17L331.54 67.2c-4.71-5.61-10.87-14.85-10.87-14.85s.72 10.86.72 17.75v63.92H303.1V9.61ZM444.91 10.88h78.23v16.84h-59.03v47.81h52.33v16.48h-52.33v25.17h61.57v16.84h-80.77V10.88ZM570.22 62.13c-4.89-5.25-11.59-13.76-11.59-13.76s1.27 10.14 1.27 17.75v67.91h-17.75V9.61h2.54l67.91 72.98c4.71 5.07 11.41 13.76 11.41 13.76s-1.27-10.86-1.27-17.75V10.88h17.75v124.41h-2.35l-67.91-73.16Z"/></g><g fill="#131313"><path d="M9.49 220.52c0-37.95 29.17-65.25 65.63-65.25s65.44 27.3 65.44 65.25-29.17 65.25-65.44 65.25-65.63-27.29-65.63-65.25Zm110.87 0c0-27.11-18.7-47.49-45.25-47.49s-45.43 20.38-45.43 47.49 18.88 47.49 45.43 47.49 45.25-20.38 45.25-47.49ZM139.62 156.95h20.75l22.44 67.68c2.43 7.11 4.86 18.14 4.86 18.14s3.18-10.84 6.17-18.14l29.17-68.99h2.43l29.35 68.99c2.99 7.11 5.98 18.14 5.98 18.14s2.62-11.03 5.05-18.14l22.44-67.68h19.26L263.58 285.4h-2.43l-31.6-75.72c-2.62-6.17-5.24-15.52-5.24-15.52s-2.99 9.35-5.61 15.52l-32.35 75.72h-2.43l-44.31-128.45ZM347.71 209.86c-5.05-5.42-11.97-14.21-11.97-14.21s1.31 10.47 1.31 18.32v70.11h-18.32V155.64h2.62l70.11 75.35c4.86 5.23 11.78 14.21 11.78 14.21s-1.31-11.22-1.31-18.32v-69.93h18.32V285.4h-2.43l-70.11-75.53ZM441.56 156.95h80.77v17.39h-60.95v49.36h54.04v17.01h-54.04v25.99h63.57v17.39h-83.39V156.95ZM541.96 156.95h34.96c40.76 0 67.87 25.43 67.87 63.57s-26.92 63.57-67.87 63.57h-34.96V156.95Zm33.65 109.75c33.1 0 48.61-19.07 48.61-46.18s-15.52-46.18-48.61-46.18h-13.84v92.36h13.84Z"/></g><g fill="#131313"><path d="M195.67 58.87c3.38 1.22 6.82 3.23 10.23 5.96.14-.15.27-.3.4-.46 1.25-1.46 2.36-3.05 3.33-4.72 1.22-2.12 2.21-4.4 2.93-6.78.25-.79.44-1.59.62-2.39l.27-1.39c.16-.83.28-1.45.36-2.09.4-3.14.43-6.48.08-9.92-.37-3.55-1.14-7.33-2.29-11.22-.15-.52-.41-1.06-.79-1.7-1-1.69-2.58-2.93-4.44-3.49-1.52-.45-2.91-.46-4.44-.03a7.697 7.697 0 0 0-4.6 3.75 7.667 7.667 0 0 0-.61 5.91c.21.72.4 1.41.57 2.09.2.77.37 1.52.52 2.27.11.56.22 1.11.3 1.66.08.48.16.99.23 1.48.38 3.11.35 5.85-.11 8.39-.22 1.15-.5 2.16-.84 3.11-.34.9-.73 1.75-1.21 2.59-.57 1.01-1.26 1.94-2.09 2.86-.66.73-1.4 1.43-2.2 2.08-.19.15-.37.3-.57.44.73.27 1.42.52 2.08.76l2.28.85ZM176.36 48.84c5.26 0 9.53-4.28 9.53-9.53s-4.27-9.54-9.53-9.54-9.53 4.28-9.53 9.54 4.28 9.53 9.53 9.53ZM196.81 88.58c.57.99 1.05 2.05 1.43 3.23a20.269 20.269 0 0 1 .8 3.67c.54-.46 1.06-.88 1.56-1.29l2.01-1.66c2.76-2.32 6.21-4.3 10.28-5.89-.06-.19-.13-.39-.19-.58-.65-1.8-1.47-3.57-2.43-5.24a32.836 32.836 0 0 0-4.41-5.93c-.56-.6-1.15-1.17-1.75-1.73l-1.07-.95c-.63-.54-1.11-.96-1.62-1.34-2.51-1.91-5.38-3.61-8.56-5.04-3.25-1.45-6.9-2.67-10.85-3.62-.5-.11-1.03-.17-1.69-.17-2.15.03-4.01.78-5.43 2.1-1.16 1.1-1.87 2.31-2.24 3.83-.48 2.01-.15 4.1.94 5.86a7.727 7.727 0 0 0 4.81 3.49c.72.17 1.42.35 2.1.55.77.22 1.51.44 2.23.68.53.18 1.07.36 1.6.57.45.17.94.36 1.4.55 2.89 1.21 5.24 2.62 7.2 4.29.89.76 1.62 1.51 2.27 2.28.61.74 1.15 1.51 1.63 2.35ZM180.78 91.2a9.426 9.426 0 0 0-4.75-1.28c-3.41 0-6.58 1.82-8.28 4.77a9.467 9.467 0 0 0-.95 7.23 9.483 9.483 0 0 0 4.44 5.79c1.44.83 3.09 1.28 4.75 1.28 3.41 0 6.58-1.82 8.28-4.77 1.27-2.2 1.61-4.77.95-7.23a9.456 9.456 0 0 0-4.44-5.79ZM204.52 119.11c2.08-.06 4.01-.92 5.43-2.42.52-.54 1.02-1.06 1.52-1.55.57-.55 1.14-1.08 1.71-1.58.42-.38.86-.76 1.29-1.1.35-.29.73-.59 1.1-.88 2.57-1.94 4.96-3.28 7.39-4.14 1.11-.39 2.12-.65 3.12-.82 2.08-.36 4.22-.31 6.35.13.98.21 1.95.5 2.91.88.22.08.44.17.66.27-.13-.71-.24-1.38-.35-2.03l-.43-2.54c-.64-3.53-.62-7.52.04-11.84-.2-.04-.4-.08-.61-.12a32.054 32.054 0 0 0-13.08.33c-.8.18-1.59.42-2.37.65l-1.35.46c-.86.3-1.42.49-1.98.73-2.92 1.22-5.83 2.87-8.64 4.9-2.91 2.1-5.79 4.65-8.57 7.59-.38.4-.72.89-1.08 1.53a7.853 7.853 0 0 0-.81 5.61c.37 1.54 1.07 2.77 2.2 3.85a7.676 7.676 0 0 0 5.31 2.12h.23ZM227.92 120.29c-1.67 0-3.31.44-4.75 1.28-4.56 2.63-6.12 8.47-3.49 13.02a9.587 9.587 0 0 0 8.28 4.77c1.66 0 3.31-.44 4.75-1.28 4.55-2.63 6.12-8.47 3.49-13.03a9.561 9.561 0 0 0-8.27-4.76ZM260.87 80.48c-3.38-1.22-6.82-3.23-10.22-5.96-.13.15-.27.3-.4.46a32.616 32.616 0 0 0-3.33 4.72c-1.22 2.11-2.2 4.39-2.93 6.78-.24.78-.43 1.59-.62 2.39l-.28 1.4c-.17.89-.28 1.48-.35 2.07-.41 3.15-.43 6.49-.08 9.94.36 3.56 1.13 7.33 2.29 11.21.15.53.4 1.07.78 1.7a7.81 7.81 0 0 0 4.44 3.5c1.54.46 2.92.47 4.43.03a7.695 7.695 0 0 0 4.61-3.75c.99-1.82 1.2-3.92.61-5.91a55.727 55.727 0 0 1-1.09-4.36c-.11-.56-.23-1.11-.31-1.66-.08-.49-.15-1-.22-1.48-.39-3.12-.35-5.86.11-8.39.22-1.15.49-2.16.85-3.11.33-.89.72-1.74 1.21-2.58.58-1.01 1.26-1.94 2.08-2.85.66-.74 1.41-1.43 2.2-2.08.19-.15.38-.3.57-.44-.71-.26-1.4-.52-2.04-.76l-2.32-.86ZM280.19 90.51c-5.26 0-9.54 4.28-9.54 9.53s4.28 9.53 9.54 9.53 9.53-4.28 9.53-9.53-4.28-9.53-9.53-9.53ZM276.41 77.32c1.96-.03 3.83-.77 5.25-2.1 1.15-1.09 1.86-2.31 2.23-3.83.48-2.01.15-4.1-.94-5.86a7.72 7.72 0 0 0-4.82-3.49c-.72-.17-1.41-.35-2.09-.55-.77-.22-1.51-.44-2.23-.68-.53-.18-1.07-.37-1.6-.57-.45-.16-.93-.35-1.39-.55-2.89-1.21-5.24-2.62-7.2-4.29a19.52 19.52 0 0 1-2.27-2.29 16.73 16.73 0 0 1-1.63-2.33c-.6-1.04-1.06-2.09-1.44-3.25-.31-.93-.53-1.93-.69-2.95-.04-.23-.07-.47-.1-.71-.58.49-1.14.95-1.66 1.38l-1.92 1.59c-2.75 2.31-6.2 4.29-10.27 5.88.07.19.13.38.2.57.64 1.79 1.45 3.56 2.43 5.25 1.21 2.11 2.7 4.1 4.41 5.93.56.61 1.16 1.17 1.76 1.73l1.07.94c.63.54 1.11.96 1.62 1.34 2.51 1.92 5.39 3.61 8.56 5.04 3.27 1.46 6.93 2.68 10.85 3.62.5.11 1.03.17 1.69.17h.18ZM275.76 48.16c4.41 2.54 10.5.89 13.02-3.49 2.63-4.56 1.07-10.4-3.49-13.03a9.453 9.453 0 0 0-4.75-1.28c-3.41 0-6.58 1.82-8.28 4.77a9.467 9.467 0 0 0-.95 7.23 9.483 9.483 0 0 0 4.44 5.79ZM221.33 36.04c.63 3.55.62 7.54-.04 11.84.2.04.39.08.59.11 4.28.79 8.8.67 13.1-.33.8-.18 1.59-.41 2.37-.65l1.36-.45c.8-.28 1.39-.49 1.97-.73 2.93-1.23 5.84-2.88 8.65-4.9 2.89-2.08 5.77-4.63 8.57-7.59.37-.39.72-.88 1.09-1.54.95-1.71 1.24-3.7.8-5.59-.37-1.55-1.06-2.77-2.2-3.86a7.676 7.676 0 0 0-5.31-2.12c-2.31.06-4.24.92-5.66 2.43-.5.53-1.01 1.05-1.51 1.54-.58.57-1.15 1.09-1.72 1.59-.42.38-.85.75-1.29 1.1-.36.31-.77.63-1.17.93-2.51 1.9-4.9 3.23-7.32 4.09-1.1.39-2.12.65-3.11.82-2.07.35-4.18.32-6.35-.13-.97-.21-1.94-.5-2.91-.88a9.16 9.16 0 0 1-.66-.27c.14.76.26 1.49.38 2.18l.4 2.39ZM233.38 17.79c4.56-2.62 6.12-8.47 3.49-13.02A9.587 9.587 0 0 0 228.59 0c-1.66 0-3.3.44-4.75 1.28a9.483 9.483 0 0 0-4.44 5.79c-.66 2.46-.32 5.03.95 7.23 2.53 4.37 8.62 6.04 13.02 3.49Z"/></g><path d="M650.59 24.38c0-7.85 6.12-13.54 13.63-13.54s13.8 5.69 13.8 13.54-6.21 13.45-13.8 13.45-13.63-5.69-13.63-13.45Zm24.84 0c0-6.73-4.74-11.29-11.21-11.29s-11.04 4.57-11.04 11.29 4.66 11.04 11.04 11.04 11.21-4.48 11.21-11.04Zm-5 7.5h-3.45l-2.5-3.71h-2.25v3.71h-3.19V16.53h4.83c4.57 0 6.73 2.68 6.73 5.86 0 2.24-1.12 4.06-3.1 5l2.93 4.48Zm-6.64-6.21c2.59 0 3.62-1.21 3.62-3.19s-1.03-3.28-3.62-3.28h-1.55v6.47h1.55Z" fill="#131313"/></svg><svg width="34" height="34" fill="none" viewBox="-1 -1 34 34" id="youtube" y="1248" xmlns="http://www.w3.org/2000/svg"><path fill-rule="evenodd" clip-rule="evenodd" d="M26.54 10.67a2.763 2.763 0 0 0-1.94-1.957C22.88 8.25 16 8.25 16 8.25s-6.88 0-8.6.463a2.763 2.763 0 0 0-1.94 1.957A29.04 29.04 0 0 0 5 16a29.04 29.04 0 0 0 .46 5.33 2.763 2.763 0 0 0 1.945 1.957c1.715.463 8.6.463 8.6.463s6.88 0 8.595-.463a2.763 2.763 0 0 0 1.94-1.957A29.04 29.04 0 0 0 27 16a29.04 29.04 0 0 0-.46-5.33Zm-12.79 8.6v-6.541L19.5 16l-5.75 3.27Z" fill="#131313"/></svg></svg>